G04 #@! TF.FileFunction,Copper,L4,Bot,Signal*
%FSLAX46Y46*%
G04 Gerber Fmt 4.6, Leading zero omitted, Abs format (unit mm)*
G04 Created by KiCad (PCBNEW (2016-03-20 BZR 6634, Git a4ba01f)-product) date 3/28/2016 1:32:43 PM*
%MOMM*%
G01*
G04 APERTURE LIST*
%ADD10C,0.100000*%
%ADD11O,1.998980X1.998980*%
%ADD12R,1.998980X1.998980*%
%ADD13R,2.032000X2.032000*%
%ADD14O,2.032000X2.032000*%
%ADD15C,0.470000*%
%ADD16C,0.254000*%
G04 APERTURE END LIST*
D10*
D11*
X148400000Y-114260000D03*
D12*
X148400000Y-116800000D03*
D13*
X142800000Y-116700000D03*
D14*
X142800000Y-114160000D03*
D15*
X140410000Y-108670000D03*
X148310000Y-108670000D03*
X147040000Y-96770000D03*
X139140000Y-96770000D03*
X139140000Y-108670000D03*
X147040000Y-108670000D03*
X148310000Y-96770000D03*
X140410000Y-96770000D03*
D16*
G36*
X151518000Y-78816808D02*
X151518000Y-118318000D01*
X137352141Y-118318000D01*
X137620999Y-118049611D01*
X137768832Y-117693592D01*
X137769168Y-117308100D01*
X137621957Y-116951823D01*
X137349611Y-116679001D01*
X136993592Y-116531168D01*
X136608100Y-116530832D01*
X136251823Y-116678043D01*
X135982000Y-116947395D01*
X135982000Y-115552141D01*
X136250389Y-115820999D01*
X136606408Y-115968832D01*
X136991900Y-115969168D01*
X137348177Y-115821957D01*
X137620999Y-115549611D01*
X137768832Y-115193592D01*
X137769168Y-114808100D01*
X137621957Y-114451823D01*
X137349611Y-114179001D01*
X137246151Y-114136040D01*
X141577000Y-114136040D01*
X141577000Y-114183960D01*
X141670095Y-114651982D01*
X141935208Y-115048752D01*
X142331978Y-115313865D01*
X142800000Y-115406960D01*
X143268022Y-115313865D01*
X143664792Y-115048752D01*
X143929905Y-114651982D01*
X144012576Y-114236363D01*
X147193510Y-114236363D01*
X147193510Y-114283637D01*
X147285349Y-114745341D01*
X147546883Y-115136754D01*
X147938296Y-115398288D01*
X148400000Y-115490127D01*
X148861704Y-115398288D01*
X149253117Y-115136754D01*
X149514651Y-114745341D01*
X149606490Y-114283637D01*
X149606490Y-114236363D01*
X149514651Y-113774659D01*
X149253117Y-113383246D01*
X148861704Y-113121712D01*
X148400000Y-113029873D01*
X147938296Y-113121712D01*
X147546883Y-113383246D01*
X147285349Y-113774659D01*
X147193510Y-114236363D01*
X144012576Y-114236363D01*
X144023000Y-114183960D01*
X144023000Y-114136040D01*
X143929905Y-113668018D01*
X143664792Y-113271248D01*
X143268022Y-113006135D01*
X142800000Y-112913040D01*
X142331978Y-113006135D01*
X141935208Y-113271248D01*
X141670095Y-113668018D01*
X141577000Y-114136040D01*
X137246151Y-114136040D01*
X136993592Y-114031168D01*
X136608100Y-114030832D01*
X136251823Y-114178043D01*
X135982000Y-114447395D01*
X135982000Y-113052141D01*
X136250389Y-113320999D01*
X136606408Y-113468832D01*
X136991900Y-113469168D01*
X137348177Y-113321957D01*
X137620999Y-113049611D01*
X137768832Y-112693592D01*
X137768833Y-112691900D01*
X138330832Y-112691900D01*
X138478043Y-113048177D01*
X138750389Y-113320999D01*
X139106408Y-113468832D01*
X139491900Y-113469168D01*
X139848177Y-113321957D01*
X140120999Y-113049611D01*
X140268832Y-112693592D01*
X140269168Y-112308100D01*
X140121957Y-111951823D01*
X139849611Y-111679001D01*
X139493592Y-111531168D01*
X139108100Y-111530832D01*
X138751823Y-111678043D01*
X138479001Y-111950389D01*
X138331168Y-112306408D01*
X138330832Y-112691900D01*
X137768833Y-112691900D01*
X137769168Y-112308100D01*
X137621957Y-111951823D01*
X137349611Y-111679001D01*
X136993592Y-111531168D01*
X136608100Y-111530832D01*
X136251823Y-111678043D01*
X135982000Y-111947395D01*
X135982000Y-108757533D01*
X139967924Y-108757533D01*
X140035072Y-108920046D01*
X140159300Y-109044491D01*
X140321695Y-109111923D01*
X140497533Y-109112076D01*
X140660046Y-109044928D01*
X140784491Y-108920700D01*
X140851923Y-108758305D01*
X140851923Y-108757533D01*
X147867924Y-108757533D01*
X147935072Y-108920046D01*
X148059300Y-109044491D01*
X148221695Y-109111923D01*
X148397533Y-109112076D01*
X148560046Y-109044928D01*
X148684491Y-108920700D01*
X148751923Y-108758305D01*
X148752076Y-108582467D01*
X148684928Y-108419954D01*
X148560700Y-108295509D01*
X148398305Y-108228077D01*
X148222467Y-108227924D01*
X148059954Y-108295072D01*
X147935509Y-108419300D01*
X147868077Y-108581695D01*
X147867924Y-108757533D01*
X140851923Y-108757533D01*
X140852076Y-108582467D01*
X140784928Y-108419954D01*
X140660700Y-108295509D01*
X140498305Y-108228077D01*
X140322467Y-108227924D01*
X140159954Y-108295072D01*
X140035509Y-108419300D01*
X139968077Y-108581695D01*
X139967924Y-108757533D01*
X135982000Y-108757533D01*
X135982000Y-96857533D01*
X138697924Y-96857533D01*
X138765072Y-97020046D01*
X138889300Y-97144491D01*
X139051695Y-97211923D01*
X139227533Y-97212076D01*
X139390046Y-97144928D01*
X139514491Y-97020700D01*
X139581923Y-96858305D01*
X139581923Y-96857533D01*
X146597924Y-96857533D01*
X146665072Y-97020046D01*
X146789300Y-97144491D01*
X146951695Y-97211923D01*
X147127533Y-97212076D01*
X147290046Y-97144928D01*
X147414491Y-97020700D01*
X147481923Y-96858305D01*
X147482076Y-96682467D01*
X147414928Y-96519954D01*
X147290700Y-96395509D01*
X147128305Y-96328077D01*
X146952467Y-96327924D01*
X146789954Y-96395072D01*
X146665509Y-96519300D01*
X146598077Y-96681695D01*
X146597924Y-96857533D01*
X139581923Y-96857533D01*
X139582076Y-96682467D01*
X139514928Y-96519954D01*
X139390700Y-96395509D01*
X139228305Y-96328077D01*
X139052467Y-96327924D01*
X138889954Y-96395072D01*
X138765509Y-96519300D01*
X138698077Y-96681695D01*
X138697924Y-96857533D01*
X135982000Y-96857533D01*
X135982000Y-78816808D01*
X142316808Y-72482000D01*
X145183192Y-72482000D01*
X151518000Y-78816808D01*
X151518000Y-78816808D01*
G37*
X151518000Y-78816808D02*
X151518000Y-118318000D01*
X137352141Y-118318000D01*
X137620999Y-118049611D01*
X137768832Y-117693592D01*
X137769168Y-117308100D01*
X137621957Y-116951823D01*
X137349611Y-116679001D01*
X136993592Y-116531168D01*
X136608100Y-116530832D01*
X136251823Y-116678043D01*
X135982000Y-116947395D01*
X135982000Y-115552141D01*
X136250389Y-115820999D01*
X136606408Y-115968832D01*
X136991900Y-115969168D01*
X137348177Y-115821957D01*
X137620999Y-115549611D01*
X137768832Y-115193592D01*
X137769168Y-114808100D01*
X137621957Y-114451823D01*
X137349611Y-114179001D01*
X137246151Y-114136040D01*
X141577000Y-114136040D01*
X141577000Y-114183960D01*
X141670095Y-114651982D01*
X141935208Y-115048752D01*
X142331978Y-115313865D01*
X142800000Y-115406960D01*
X143268022Y-115313865D01*
X143664792Y-115048752D01*
X143929905Y-114651982D01*
X144012576Y-114236363D01*
X147193510Y-114236363D01*
X147193510Y-114283637D01*
X147285349Y-114745341D01*
X147546883Y-115136754D01*
X147938296Y-115398288D01*
X148400000Y-115490127D01*
X148861704Y-115398288D01*
X149253117Y-115136754D01*
X149514651Y-114745341D01*
X149606490Y-114283637D01*
X149606490Y-114236363D01*
X149514651Y-113774659D01*
X149253117Y-113383246D01*
X148861704Y-113121712D01*
X148400000Y-113029873D01*
X147938296Y-113121712D01*
X147546883Y-113383246D01*
X147285349Y-113774659D01*
X147193510Y-114236363D01*
X144012576Y-114236363D01*
X144023000Y-114183960D01*
X144023000Y-114136040D01*
X143929905Y-113668018D01*
X143664792Y-113271248D01*
X143268022Y-113006135D01*
X142800000Y-112913040D01*
X142331978Y-113006135D01*
X141935208Y-113271248D01*
X141670095Y-113668018D01*
X141577000Y-114136040D01*
X137246151Y-114136040D01*
X136993592Y-114031168D01*
X136608100Y-114030832D01*
X136251823Y-114178043D01*
X135982000Y-114447395D01*
X135982000Y-113052141D01*
X136250389Y-113320999D01*
X136606408Y-113468832D01*
X136991900Y-113469168D01*
X137348177Y-113321957D01*
X137620999Y-113049611D01*
X137768832Y-112693592D01*
X137768833Y-112691900D01*
X138330832Y-112691900D01*
X138478043Y-113048177D01*
X138750389Y-113320999D01*
X139106408Y-113468832D01*
X139491900Y-113469168D01*
X139848177Y-113321957D01*
X140120999Y-113049611D01*
X140268832Y-112693592D01*
X140269168Y-112308100D01*
X140121957Y-111951823D01*
X139849611Y-111679001D01*
X139493592Y-111531168D01*
X139108100Y-111530832D01*
X138751823Y-111678043D01*
X138479001Y-111950389D01*
X138331168Y-112306408D01*
X138330832Y-112691900D01*
X137768833Y-112691900D01*
X137769168Y-112308100D01*
X137621957Y-111951823D01*
X137349611Y-111679001D01*
X136993592Y-111531168D01*
X136608100Y-111530832D01*
X136251823Y-111678043D01*
X135982000Y-111947395D01*
X135982000Y-108757533D01*
X139967924Y-108757533D01*
X140035072Y-108920046D01*
X140159300Y-109044491D01*
X140321695Y-109111923D01*
X140497533Y-109112076D01*
X140660046Y-109044928D01*
X140784491Y-108920700D01*
X140851923Y-108758305D01*
X140851923Y-108757533D01*
X147867924Y-108757533D01*
X147935072Y-108920046D01*
X148059300Y-109044491D01*
X148221695Y-109111923D01*
X148397533Y-109112076D01*
X148560046Y-109044928D01*
X148684491Y-108920700D01*
X148751923Y-108758305D01*
X148752076Y-108582467D01*
X148684928Y-108419954D01*
X148560700Y-108295509D01*
X148398305Y-108228077D01*
X148222467Y-108227924D01*
X148059954Y-108295072D01*
X147935509Y-108419300D01*
X147868077Y-108581695D01*
X147867924Y-108757533D01*
X140851923Y-108757533D01*
X140852076Y-108582467D01*
X140784928Y-108419954D01*
X140660700Y-108295509D01*
X140498305Y-108228077D01*
X140322467Y-108227924D01*
X140159954Y-108295072D01*
X140035509Y-108419300D01*
X139968077Y-108581695D01*
X139967924Y-108757533D01*
X135982000Y-108757533D01*
X135982000Y-96857533D01*
X138697924Y-96857533D01*
X138765072Y-97020046D01*
X138889300Y-97144491D01*
X139051695Y-97211923D01*
X139227533Y-97212076D01*
X139390046Y-97144928D01*
X139514491Y-97020700D01*
X139581923Y-96858305D01*
X139581923Y-96857533D01*
X146597924Y-96857533D01*
X146665072Y-97020046D01*
X146789300Y-97144491D01*
X146951695Y-97211923D01*
X147127533Y-97212076D01*
X147290046Y-97144928D01*
X147414491Y-97020700D01*
X147481923Y-96858305D01*
X147482076Y-96682467D01*
X147414928Y-96519954D01*
X147290700Y-96395509D01*
X147128305Y-96328077D01*
X146952467Y-96327924D01*
X146789954Y-96395072D01*
X146665509Y-96519300D01*
X146598077Y-96681695D01*
X146597924Y-96857533D01*
X139581923Y-96857533D01*
X139582076Y-96682467D01*
X139514928Y-96519954D01*
X139390700Y-96395509D01*
X139228305Y-96328077D01*
X139052467Y-96327924D01*
X138889954Y-96395072D01*
X138765509Y-96519300D01*
X138698077Y-96681695D01*
X138697924Y-96857533D01*
X135982000Y-96857533D01*
X135982000Y-78816808D01*
X142316808Y-72482000D01*
X145183192Y-72482000D01*
X151518000Y-78816808D01*
M02*
