G04 #@! TF.FileFunction,Copper,L2,Inr,Signal*
%FSLAX46Y46*%
G04 Gerber Fmt 4.6, Leading zero omitted, Abs format (unit mm)*
G04 Created by KiCad (PCBNEW (2016-03-20 BZR 6634, Git a4ba01f)-product) date 3/28/2016 11:14:44 AM*
%MOMM*%
G01*
G04 APERTURE LIST*
%ADD10C,0.100000*%
%ADD11O,1.998980X1.998980*%
%ADD12R,1.998980X1.998980*%
%ADD13C,0.625000*%
%ADD14C,0.254000*%
G04 APERTURE END LIST*
D10*
D11*
X144940000Y-114100000D03*
D12*
X142400000Y-114100000D03*
D13*
X134475000Y-96575000D03*
X135750000Y-108875000D03*
X152875000Y-108850000D03*
X135750000Y-96575000D03*
X134475000Y-108875000D03*
X151575000Y-108850000D03*
D14*
G36*
X158068000Y-84837519D02*
X158068000Y-103252394D01*
X153660197Y-107660197D01*
X153632667Y-107701399D01*
X153623000Y-107750000D01*
X153623000Y-107778458D01*
X153593272Y-107822949D01*
X153568000Y-107950000D01*
X153568000Y-109701766D01*
X146347648Y-116873000D01*
X140999555Y-116873000D01*
X138394350Y-114474831D01*
X137020029Y-113100510D01*
X141107888Y-113100510D01*
X141107888Y-115099490D01*
X141130163Y-115211472D01*
X141193595Y-115306405D01*
X141288528Y-115369837D01*
X141400510Y-115392112D01*
X143399490Y-115392112D01*
X143511472Y-115369837D01*
X143606405Y-115306405D01*
X143669837Y-115211472D01*
X143692112Y-115099490D01*
X143692112Y-113100510D01*
X143669837Y-112988528D01*
X143606405Y-112893595D01*
X143511472Y-112830163D01*
X143399490Y-112807888D01*
X141400510Y-112807888D01*
X141288528Y-112830163D01*
X141193595Y-112893595D01*
X141130163Y-112988528D01*
X141107888Y-113100510D01*
X137020029Y-113100510D01*
X133582000Y-109662482D01*
X133582000Y-108993725D01*
X133875396Y-108993725D01*
X133966472Y-109214146D01*
X134134967Y-109382935D01*
X134355229Y-109474396D01*
X134593725Y-109474604D01*
X134814146Y-109383528D01*
X134982935Y-109215033D01*
X135074396Y-108994771D01*
X135074418Y-108968725D01*
X150975396Y-108968725D01*
X151066472Y-109189146D01*
X151234967Y-109357935D01*
X151455229Y-109449396D01*
X151693725Y-109449604D01*
X151914146Y-109358528D01*
X152082935Y-109190033D01*
X152174396Y-108969771D01*
X152174604Y-108731275D01*
X152083528Y-108510854D01*
X151915033Y-108342065D01*
X151694771Y-108250604D01*
X151456275Y-108250396D01*
X151235854Y-108341472D01*
X151067065Y-108509967D01*
X150975604Y-108730229D01*
X150975396Y-108968725D01*
X135074418Y-108968725D01*
X135074604Y-108756275D01*
X134983528Y-108535854D01*
X134815033Y-108367065D01*
X134594771Y-108275604D01*
X134356275Y-108275396D01*
X134135854Y-108366472D01*
X133967065Y-108534967D01*
X133875604Y-108755229D01*
X133875396Y-108993725D01*
X133582000Y-108993725D01*
X133582000Y-107700000D01*
X133556728Y-107572949D01*
X133484759Y-107465240D01*
X128482000Y-102462482D01*
X128482000Y-96693725D01*
X135150396Y-96693725D01*
X135241472Y-96914146D01*
X135409967Y-97082935D01*
X135630229Y-97174396D01*
X135868725Y-97174604D01*
X136089146Y-97083528D01*
X136257935Y-96915033D01*
X136349396Y-96694771D01*
X136349604Y-96456275D01*
X136258528Y-96235854D01*
X136090033Y-96067065D01*
X135869771Y-95975604D01*
X135631275Y-95975396D01*
X135410854Y-96066472D01*
X135242065Y-96234967D01*
X135150604Y-96455229D01*
X135150396Y-96693725D01*
X128482000Y-96693725D01*
X128482000Y-85337518D01*
X141684759Y-72134760D01*
X141684761Y-72134757D01*
X141687518Y-72132000D01*
X145362482Y-72132000D01*
X158068000Y-84837519D01*
X158068000Y-84837519D01*
G37*
X158068000Y-84837519D02*
X158068000Y-103252394D01*
X153660197Y-107660197D01*
X153632667Y-107701399D01*
X153623000Y-107750000D01*
X153623000Y-107778458D01*
X153593272Y-107822949D01*
X153568000Y-107950000D01*
X153568000Y-109701766D01*
X146347648Y-116873000D01*
X140999555Y-116873000D01*
X138394350Y-114474831D01*
X137020029Y-113100510D01*
X141107888Y-113100510D01*
X141107888Y-115099490D01*
X141130163Y-115211472D01*
X141193595Y-115306405D01*
X141288528Y-115369837D01*
X141400510Y-115392112D01*
X143399490Y-115392112D01*
X143511472Y-115369837D01*
X143606405Y-115306405D01*
X143669837Y-115211472D01*
X143692112Y-115099490D01*
X143692112Y-113100510D01*
X143669837Y-112988528D01*
X143606405Y-112893595D01*
X143511472Y-112830163D01*
X143399490Y-112807888D01*
X141400510Y-112807888D01*
X141288528Y-112830163D01*
X141193595Y-112893595D01*
X141130163Y-112988528D01*
X141107888Y-113100510D01*
X137020029Y-113100510D01*
X133582000Y-109662482D01*
X133582000Y-108993725D01*
X133875396Y-108993725D01*
X133966472Y-109214146D01*
X134134967Y-109382935D01*
X134355229Y-109474396D01*
X134593725Y-109474604D01*
X134814146Y-109383528D01*
X134982935Y-109215033D01*
X135074396Y-108994771D01*
X135074418Y-108968725D01*
X150975396Y-108968725D01*
X151066472Y-109189146D01*
X151234967Y-109357935D01*
X151455229Y-109449396D01*
X151693725Y-109449604D01*
X151914146Y-109358528D01*
X152082935Y-109190033D01*
X152174396Y-108969771D01*
X152174604Y-108731275D01*
X152083528Y-108510854D01*
X151915033Y-108342065D01*
X151694771Y-108250604D01*
X151456275Y-108250396D01*
X151235854Y-108341472D01*
X151067065Y-108509967D01*
X150975604Y-108730229D01*
X150975396Y-108968725D01*
X135074418Y-108968725D01*
X135074604Y-108756275D01*
X134983528Y-108535854D01*
X134815033Y-108367065D01*
X134594771Y-108275604D01*
X134356275Y-108275396D01*
X134135854Y-108366472D01*
X133967065Y-108534967D01*
X133875604Y-108755229D01*
X133875396Y-108993725D01*
X133582000Y-108993725D01*
X133582000Y-107700000D01*
X133556728Y-107572949D01*
X133484759Y-107465240D01*
X128482000Y-102462482D01*
X128482000Y-96693725D01*
X135150396Y-96693725D01*
X135241472Y-96914146D01*
X135409967Y-97082935D01*
X135630229Y-97174396D01*
X135868725Y-97174604D01*
X136089146Y-97083528D01*
X136257935Y-96915033D01*
X136349396Y-96694771D01*
X136349604Y-96456275D01*
X136258528Y-96235854D01*
X136090033Y-96067065D01*
X135869771Y-95975604D01*
X135631275Y-95975396D01*
X135410854Y-96066472D01*
X135242065Y-96234967D01*
X135150604Y-96455229D01*
X135150396Y-96693725D01*
X128482000Y-96693725D01*
X128482000Y-85337518D01*
X141684759Y-72134760D01*
X141684761Y-72134757D01*
X141687518Y-72132000D01*
X145362482Y-72132000D01*
X158068000Y-84837519D01*
M02*
