G04 #@! TF.FileFunction,Copper,L1,Top,Signal*
%FSLAX46Y46*%
G04 Gerber Fmt 4.6, Leading zero omitted, Abs format (unit mm)*
G04 Created by KiCad (PCBNEW (2016-03-20 BZR 6634, Git a4ba01f)-product) date 3/30/2016 9:29:24 AM*
%MOMM*%
G01*
G04 APERTURE LIST*
%ADD10C,0.100000*%
%ADD11O,1.998980X1.998980*%
%ADD12R,1.998980X1.998980*%
%ADD13R,2.032000X2.032000*%
%ADD14O,2.032000X2.032000*%
%ADD15R,0.475000X0.220000*%
%ADD16R,0.650000X0.320000*%
%ADD17R,1.020000X0.380000*%
%ADD18C,0.470000*%
%ADD19C,0.080000*%
%ADD20C,0.254000*%
G04 APERTURE END LIST*
D10*
D11*
X153600000Y-119160000D03*
D12*
X153600000Y-121700000D03*
D13*
X148400000Y-121700000D03*
D14*
X148400000Y-119160000D03*
D15*
X142512500Y-72600000D03*
X144937500Y-72600000D03*
X142512500Y-73000000D03*
X144937500Y-73000000D03*
X142512500Y-73400000D03*
X144937500Y-73400000D03*
X142512500Y-73800000D03*
X144937500Y-73800000D03*
X142512500Y-74200000D03*
X144937500Y-74200000D03*
X142512500Y-74600000D03*
X144937500Y-74600000D03*
X142512500Y-75000000D03*
X144937500Y-75000000D03*
X142512500Y-75400000D03*
X144937500Y-75400000D03*
X142512500Y-75800000D03*
X144937500Y-75800000D03*
X142512500Y-76200000D03*
X144937500Y-76200000D03*
X142512500Y-76600000D03*
X144937500Y-76600000D03*
X142512500Y-77000000D03*
X144937500Y-77000000D03*
X142512500Y-77400000D03*
X144937500Y-77400000D03*
X142512500Y-77800000D03*
X144937500Y-77800000D03*
X142512500Y-78200000D03*
X144937500Y-78200000D03*
X142512500Y-78600000D03*
X144937500Y-78600000D03*
X142512500Y-79000000D03*
X144937500Y-79000000D03*
X142512500Y-79400000D03*
X144937500Y-79400000D03*
X142512500Y-79800000D03*
X144937500Y-79800000D03*
X142512500Y-80200000D03*
X144937500Y-80200000D03*
X142512500Y-80600000D03*
X144937500Y-80600000D03*
X142512500Y-81000000D03*
X144937500Y-81000000D03*
X142512500Y-81400000D03*
X144937500Y-81400000D03*
X142512500Y-81800000D03*
X144937500Y-81800000D03*
X142512500Y-82200000D03*
X144937500Y-82200000D03*
X142512500Y-82600000D03*
X144937500Y-82600000D03*
X142512500Y-83000000D03*
X144937500Y-83000000D03*
X142512500Y-83400000D03*
X144937500Y-83400000D03*
X142512500Y-83800000D03*
X144937500Y-83800000D03*
X142512500Y-84200000D03*
X144937500Y-84200000D03*
X142512500Y-84600000D03*
X144937500Y-84600000D03*
X142512500Y-85000000D03*
X144937500Y-85000000D03*
D16*
X142640000Y-71650000D03*
X144810000Y-71650000D03*
X144810000Y-85950000D03*
X142640000Y-85950000D03*
D17*
X140410000Y-108140000D03*
X139140000Y-108140000D03*
X140410000Y-107500000D03*
X139140000Y-107500000D03*
X140410000Y-106860000D03*
X139140000Y-106860000D03*
X140410000Y-106220000D03*
X139140000Y-106220000D03*
X140410000Y-105580000D03*
X139140000Y-105580000D03*
X140410000Y-104940000D03*
X139140000Y-104940000D03*
X140410000Y-104300000D03*
X139140000Y-104300000D03*
X140410000Y-103660000D03*
X139140000Y-103660000D03*
X140410000Y-103020000D03*
X139140000Y-103020000D03*
X140410000Y-102380000D03*
X139140000Y-102380000D03*
X140410000Y-101740000D03*
X139140000Y-101740000D03*
X140410000Y-101100000D03*
X139140000Y-101100000D03*
X140410000Y-100460000D03*
X139140000Y-100460000D03*
X140410000Y-99820000D03*
X139140000Y-99820000D03*
X140410000Y-99180000D03*
X139140000Y-99180000D03*
X140410000Y-98540000D03*
X139140000Y-98540000D03*
X140410000Y-97900000D03*
X139140000Y-97900000D03*
X140410000Y-97260000D03*
X139140000Y-97260000D03*
X148310000Y-108140000D03*
X147040000Y-108140000D03*
X148310000Y-107500000D03*
X147040000Y-107500000D03*
X148310000Y-106860000D03*
X147040000Y-106860000D03*
X148310000Y-106220000D03*
X147040000Y-106220000D03*
X148310000Y-105580000D03*
X147040000Y-105580000D03*
X148310000Y-104940000D03*
X147040000Y-104940000D03*
X148310000Y-104300000D03*
X147040000Y-104300000D03*
X148310000Y-103660000D03*
X147040000Y-103660000D03*
X148310000Y-103020000D03*
X147040000Y-103020000D03*
X148310000Y-102380000D03*
X147040000Y-102380000D03*
X148310000Y-101740000D03*
X147040000Y-101740000D03*
X148310000Y-101100000D03*
X147040000Y-101100000D03*
X148310000Y-100460000D03*
X147040000Y-100460000D03*
X148310000Y-99820000D03*
X147040000Y-99820000D03*
X148310000Y-99180000D03*
X147040000Y-99180000D03*
X148310000Y-98540000D03*
X147040000Y-98540000D03*
X148310000Y-97900000D03*
X147040000Y-97900000D03*
X148310000Y-97260000D03*
X147040000Y-97260000D03*
X156210000Y-108140000D03*
X154940000Y-108140000D03*
X156210000Y-107500000D03*
X154940000Y-107500000D03*
X156210000Y-106860000D03*
X154940000Y-106860000D03*
X156210000Y-106220000D03*
X154940000Y-106220000D03*
X156210000Y-105580000D03*
X154940000Y-105580000D03*
X156210000Y-104940000D03*
X154940000Y-104940000D03*
X156210000Y-104300000D03*
X154940000Y-104300000D03*
X156210000Y-103660000D03*
X154940000Y-103660000D03*
X156210000Y-103020000D03*
X154940000Y-103020000D03*
X156210000Y-102380000D03*
X154940000Y-102380000D03*
X156210000Y-101740000D03*
X154940000Y-101740000D03*
X156210000Y-101100000D03*
X154940000Y-101100000D03*
X156210000Y-100460000D03*
X154940000Y-100460000D03*
X156210000Y-99820000D03*
X154940000Y-99820000D03*
X156210000Y-99180000D03*
X154940000Y-99180000D03*
X156210000Y-98540000D03*
X154940000Y-98540000D03*
X156210000Y-97900000D03*
X154940000Y-97900000D03*
X156210000Y-97260000D03*
X154940000Y-97260000D03*
D18*
X139140000Y-108670000D03*
X147040000Y-108670000D03*
X148310000Y-96770000D03*
X140410000Y-96770000D03*
X140410000Y-108670000D03*
X148310000Y-108670000D03*
X147040000Y-96770000D03*
X139140000Y-96770000D03*
D19*
X142512500Y-85000000D02*
X142870300Y-85000000D01*
X140410000Y-107500000D02*
X140733100Y-107500000D01*
X143603600Y-85733300D02*
X142870300Y-85000000D01*
X143603600Y-104992500D02*
X143603600Y-85733300D01*
X141096100Y-107500000D02*
X143603600Y-104992500D01*
X140733100Y-107500000D02*
X141096100Y-107500000D01*
X139140000Y-107500000D02*
X138509700Y-107500000D01*
X142512500Y-72600000D02*
X142154700Y-72600000D01*
X139140000Y-107500000D02*
X138509700Y-107500000D01*
X135838300Y-104828600D02*
X138509700Y-107500000D01*
X135838300Y-78916400D02*
X135838300Y-104828600D01*
X142154700Y-72600000D02*
X135838300Y-78916400D01*
X142625000Y-84600000D02*
X142512500Y-84600000D01*
X142512500Y-84600000D02*
X142267000Y-84600000D01*
X140410000Y-106860000D02*
X141040300Y-106860000D01*
X143443300Y-104457000D02*
X141040300Y-106860000D01*
X143443300Y-87408400D02*
X143443300Y-104457000D01*
X142080100Y-86045200D02*
X143443300Y-87408400D01*
X142080100Y-84786900D02*
X142080100Y-86045200D01*
X142267000Y-84600000D02*
X142080100Y-84786900D01*
X142512500Y-73000000D02*
X142154700Y-73000000D01*
X139140000Y-106860000D02*
X138509700Y-106860000D01*
X135998600Y-104348900D02*
X138509700Y-106860000D01*
X135998600Y-79156100D02*
X135998600Y-104348900D01*
X142154700Y-73000000D02*
X135998600Y-79156100D01*
X140410000Y-106220000D02*
X141040300Y-106220000D01*
X142512500Y-84200000D02*
X142154700Y-84200000D01*
X143283000Y-103977300D02*
X141040300Y-106220000D01*
X143283000Y-87474800D02*
X143283000Y-103977300D01*
X141919800Y-86111600D02*
X143283000Y-87474800D01*
X141919800Y-84434900D02*
X141919800Y-86111600D01*
X142154700Y-84200000D02*
X141919800Y-84434900D01*
X142512500Y-73400000D02*
X142154700Y-73400000D01*
X139140000Y-106220000D02*
X138509700Y-106220000D01*
X136158900Y-103869200D02*
X138509700Y-106220000D01*
X136158900Y-79395800D02*
X136158900Y-103869200D01*
X142154700Y-73400000D02*
X136158900Y-79395800D01*
X140410000Y-105580000D02*
X141040300Y-105580000D01*
X142512500Y-83800000D02*
X142154700Y-83800000D01*
X143122700Y-103497600D02*
X141040300Y-105580000D01*
X143122700Y-87541300D02*
X143122700Y-103497600D01*
X141749900Y-86168500D02*
X143122700Y-87541300D01*
X141749900Y-84204800D02*
X141749900Y-86168500D01*
X142154700Y-83800000D02*
X141749900Y-84204800D01*
X142512500Y-73800000D02*
X142154700Y-73800000D01*
X139140000Y-105580000D02*
X138509700Y-105580000D01*
X136319200Y-103389500D02*
X138509700Y-105580000D01*
X136319200Y-79635500D02*
X136319200Y-103389500D01*
X142154700Y-73800000D02*
X136319200Y-79635500D01*
X140410000Y-104940000D02*
X141040300Y-104940000D01*
X142512500Y-83400000D02*
X142154700Y-83400000D01*
X142962400Y-103017900D02*
X141040300Y-104940000D01*
X142962400Y-87607800D02*
X142962400Y-103017900D01*
X141573700Y-86219100D02*
X142962400Y-87607800D01*
X141573700Y-83981000D02*
X141573700Y-86219100D01*
X142154700Y-83400000D02*
X141573700Y-83981000D01*
X142512500Y-74200000D02*
X142154700Y-74200000D01*
X139140000Y-104940000D02*
X138509700Y-104940000D01*
X136479500Y-102909800D02*
X138509700Y-104940000D01*
X136479500Y-79875200D02*
X136479500Y-102909800D01*
X142154700Y-74200000D02*
X136479500Y-79875200D01*
X140410000Y-104300000D02*
X141040300Y-104300000D01*
X142512500Y-83000000D02*
X142154700Y-83000000D01*
X142802100Y-102538200D02*
X141040300Y-104300000D01*
X142802100Y-87674300D02*
X142802100Y-102538200D01*
X141399400Y-86271600D02*
X142802100Y-87674300D01*
X141399400Y-83755300D02*
X141399400Y-86271600D01*
X142154700Y-83000000D02*
X141399400Y-83755300D01*
X142512500Y-74600000D02*
X142154700Y-74600000D01*
X139140000Y-104300000D02*
X138509700Y-104300000D01*
X136639800Y-102430100D02*
X138509700Y-104300000D01*
X136639800Y-80114900D02*
X136639800Y-102430100D01*
X142154700Y-74600000D02*
X136639800Y-80114900D01*
X142512500Y-82600000D02*
X142154700Y-82600000D01*
X140410000Y-103660000D02*
X141040300Y-103660000D01*
X142641800Y-102058500D02*
X141040300Y-103660000D01*
X142641800Y-87740800D02*
X142641800Y-102058500D01*
X141188800Y-86287800D02*
X142641800Y-87740800D01*
X141188800Y-83565900D02*
X141188800Y-86287800D01*
X142154700Y-82600000D02*
X141188800Y-83565900D01*
X142512500Y-75000000D02*
X142154700Y-75000000D01*
X139140000Y-103660000D02*
X138509700Y-103660000D01*
X136800100Y-101950400D02*
X138509700Y-103660000D01*
X136800100Y-80354600D02*
X136800100Y-101950400D01*
X142154700Y-75000000D02*
X136800100Y-80354600D01*
X140410000Y-103020000D02*
X141040300Y-103020000D01*
X142512500Y-82200000D02*
X142154700Y-82200000D01*
X142481500Y-101578800D02*
X141040300Y-103020000D01*
X142481500Y-87807300D02*
X142481500Y-101578800D01*
X141028500Y-86354300D02*
X142481500Y-87807300D01*
X141028500Y-83326200D02*
X141028500Y-86354300D01*
X142154700Y-82200000D02*
X141028500Y-83326200D01*
X142512500Y-75400000D02*
X142154700Y-75400000D01*
X139140000Y-103020000D02*
X138509700Y-103020000D01*
X136960400Y-101470700D02*
X138509700Y-103020000D01*
X136960400Y-80594300D02*
X136960400Y-101470700D01*
X142154700Y-75400000D02*
X136960400Y-80594300D01*
X142512500Y-81800000D02*
X142154700Y-81800000D01*
X140410000Y-102380000D02*
X140647500Y-102380000D01*
X140647500Y-102380000D02*
X141040300Y-102380000D01*
X142321200Y-101099100D02*
X141040300Y-102380000D01*
X142321200Y-87873800D02*
X142321200Y-101099100D01*
X140868200Y-86420800D02*
X142321200Y-87873800D01*
X140868200Y-83086500D02*
X140868200Y-86420800D01*
X142154700Y-81800000D02*
X140868200Y-83086500D01*
X142512500Y-75800000D02*
X142154700Y-75800000D01*
X139140000Y-102380000D02*
X138509700Y-102380000D01*
X137120700Y-100991000D02*
X138509700Y-102380000D01*
X137120700Y-80834000D02*
X137120700Y-100991000D01*
X142154700Y-75800000D02*
X137120700Y-80834000D01*
X140410000Y-101740000D02*
X141040300Y-101740000D01*
X142512500Y-81400000D02*
X142154700Y-81400000D01*
X142160900Y-100619400D02*
X141040300Y-101740000D01*
X142160900Y-87940300D02*
X142160900Y-100619400D01*
X140707900Y-86487300D02*
X142160900Y-87940300D01*
X140707900Y-82846800D02*
X140707900Y-86487300D01*
X142154700Y-81400000D02*
X140707900Y-82846800D01*
X142512500Y-76200000D02*
X142154700Y-76200000D01*
X139140000Y-101740000D02*
X138509700Y-101740000D01*
X137281000Y-100511300D02*
X138509700Y-101740000D01*
X137281000Y-81073700D02*
X137281000Y-100511300D01*
X142154700Y-76200000D02*
X137281000Y-81073700D01*
X142512500Y-81000000D02*
X142154700Y-81000000D01*
X140410000Y-101100000D02*
X141040300Y-101100000D01*
X140410000Y-101100000D02*
X141040300Y-101100000D01*
X141998900Y-100141400D02*
X141040300Y-101100000D01*
X141998900Y-88005100D02*
X141998900Y-100141400D01*
X140547600Y-86553800D02*
X141998900Y-88005100D01*
X140547600Y-82607100D02*
X140547600Y-86553800D01*
X142154700Y-81000000D02*
X140547600Y-82607100D01*
X142512500Y-76600000D02*
X142154700Y-76600000D01*
X139140000Y-101100000D02*
X138509700Y-101100000D01*
X137441300Y-100031600D02*
X138509700Y-101100000D01*
X137441300Y-81313400D02*
X137441300Y-100031600D01*
X142154700Y-76600000D02*
X137441300Y-81313400D01*
X140410000Y-100460000D02*
X141040300Y-100460000D01*
X142512500Y-80600000D02*
X142154700Y-80600000D01*
X141800100Y-99700200D02*
X141040300Y-100460000D01*
X141800100Y-88033100D02*
X141800100Y-99700200D01*
X140387300Y-86620300D02*
X141800100Y-88033100D01*
X140387300Y-82367400D02*
X140387300Y-86620300D01*
X142154700Y-80600000D02*
X140387300Y-82367400D01*
X142512500Y-77000000D02*
X142154700Y-77000000D01*
X139140000Y-100460000D02*
X138509700Y-100460000D01*
X137601600Y-99551900D02*
X138509700Y-100460000D01*
X137601600Y-81553100D02*
X137601600Y-99551900D01*
X142154700Y-77000000D02*
X137601600Y-81553100D01*
X142512500Y-80200000D02*
X142154700Y-80200000D01*
X140410000Y-99820000D02*
X140563300Y-99820000D01*
X140563300Y-99820000D02*
X141040300Y-99820000D01*
X140227000Y-82127700D02*
X142154700Y-80200000D01*
X140227000Y-86686800D02*
X140227000Y-82127700D01*
X141624700Y-88084500D02*
X140227000Y-86686800D01*
X141624700Y-99235600D02*
X141624700Y-88084500D01*
X141040300Y-99820000D02*
X141624700Y-99235600D01*
X142512500Y-77400000D02*
X142154700Y-77400000D01*
X139140000Y-99820000D02*
X138509700Y-99820000D01*
X137761900Y-99072200D02*
X138509700Y-99820000D01*
X137761900Y-81792800D02*
X137761900Y-99072200D01*
X142154700Y-77400000D02*
X137761900Y-81792800D01*
X140410000Y-99180000D02*
X141040300Y-99180000D01*
X142512500Y-79800000D02*
X142154700Y-79800000D01*
X140066700Y-81888000D02*
X142154700Y-79800000D01*
X140066700Y-86753300D02*
X140066700Y-81888000D01*
X141464400Y-88151000D02*
X140066700Y-86753300D01*
X141464400Y-98755900D02*
X141464400Y-88151000D01*
X141040300Y-99180000D02*
X141464400Y-98755900D01*
X142512500Y-77800000D02*
X142154700Y-77800000D01*
X139140000Y-99180000D02*
X138509700Y-99180000D01*
X137922200Y-98592500D02*
X138509700Y-99180000D01*
X137922200Y-82032500D02*
X137922200Y-98592500D01*
X142154700Y-77800000D02*
X137922200Y-82032500D01*
X142512500Y-79400000D02*
X142154700Y-79400000D01*
X140410000Y-98540000D02*
X141040300Y-98540000D01*
X139906400Y-81648300D02*
X142154700Y-79400000D01*
X139906400Y-86819800D02*
X139906400Y-81648300D01*
X141304100Y-88217500D02*
X139906400Y-86819800D01*
X141304100Y-98276200D02*
X141304100Y-88217500D01*
X141040300Y-98540000D02*
X141304100Y-98276200D01*
X142512500Y-78200000D02*
X142154700Y-78200000D01*
X139140000Y-98540000D02*
X138509700Y-98540000D01*
X138082500Y-98112800D02*
X138509700Y-98540000D01*
X138082500Y-82272200D02*
X138082500Y-98112800D01*
X142154700Y-78200000D02*
X138082500Y-82272200D01*
X140410000Y-97900000D02*
X141040300Y-97900000D01*
X142512500Y-79000000D02*
X142154700Y-79000000D01*
X139746100Y-81408600D02*
X142154700Y-79000000D01*
X139746100Y-86886300D02*
X139746100Y-81408600D01*
X141143800Y-88284000D02*
X139746100Y-86886300D01*
X141143800Y-97796500D02*
X141143800Y-88284000D01*
X141040300Y-97900000D02*
X141143800Y-97796500D01*
X142512500Y-78600000D02*
X142154700Y-78600000D01*
X139140000Y-97900000D02*
X138509700Y-97900000D01*
X138242800Y-97633100D02*
X138509700Y-97900000D01*
X138242800Y-82511900D02*
X138242800Y-97633100D01*
X142154700Y-78600000D02*
X138242800Y-82511900D01*
X144937500Y-72600000D02*
X145295300Y-72600000D01*
X148310000Y-107500000D02*
X148940300Y-107500000D01*
X151657600Y-78962300D02*
X145295300Y-72600000D01*
X151657600Y-104782700D02*
X151657600Y-78962300D01*
X148940300Y-107500000D02*
X151657600Y-104782700D01*
X147040000Y-107500000D02*
X146409700Y-107500000D01*
X144937500Y-85000000D02*
X144579700Y-85000000D01*
X143893400Y-104983700D02*
X146409700Y-107500000D01*
X143893400Y-85686300D02*
X143893400Y-104983700D01*
X144579700Y-85000000D02*
X143893400Y-85686300D01*
X144937500Y-73000000D02*
X145295300Y-73000000D01*
X148310000Y-106860000D02*
X148940300Y-106860000D01*
X151497300Y-79202000D02*
X145295300Y-73000000D01*
X151497300Y-104303000D02*
X151497300Y-79202000D01*
X148940300Y-106860000D02*
X151497300Y-104303000D01*
X147040000Y-106860000D02*
X146409700Y-106860000D01*
X144937500Y-84600000D02*
X145295300Y-84600000D01*
X144053700Y-104504000D02*
X146409700Y-106860000D01*
X144053700Y-87502400D02*
X144053700Y-104504000D01*
X145295300Y-86260800D02*
X144053700Y-87502400D01*
X145295300Y-84600000D02*
X145295300Y-86260800D01*
X144937500Y-73400000D02*
X145295300Y-73400000D01*
X148310000Y-106220000D02*
X148940300Y-106220000D01*
X151337000Y-79441700D02*
X145295300Y-73400000D01*
X151337000Y-103823300D02*
X151337000Y-79441700D01*
X148940300Y-106220000D02*
X151337000Y-103823300D01*
X147040000Y-106220000D02*
X146409700Y-106220000D01*
X144937500Y-84200000D02*
X145295300Y-84200000D01*
X144214000Y-104024300D02*
X146409700Y-106220000D01*
X144214000Y-87568900D02*
X144214000Y-104024300D01*
X145457100Y-86325800D02*
X144214000Y-87568900D01*
X145457100Y-84361800D02*
X145457100Y-86325800D01*
X145295300Y-84200000D02*
X145457100Y-84361800D01*
X144937500Y-73800000D02*
X145295300Y-73800000D01*
X148310000Y-105580000D02*
X148940300Y-105580000D01*
X151176700Y-79681400D02*
X145295300Y-73800000D01*
X151176700Y-103343600D02*
X151176700Y-79681400D01*
X148940300Y-105580000D02*
X151176700Y-103343600D01*
X147040000Y-105580000D02*
X146409700Y-105580000D01*
X144937500Y-83800000D02*
X145295300Y-83800000D01*
X144374300Y-103544600D02*
X146409700Y-105580000D01*
X144374300Y-87635400D02*
X144374300Y-103544600D01*
X145658300Y-86351400D02*
X144374300Y-87635400D01*
X145658300Y-84163000D02*
X145658300Y-86351400D01*
X145295300Y-83800000D02*
X145658300Y-84163000D01*
X144937500Y-74200000D02*
X145295300Y-74200000D01*
X148310000Y-104940000D02*
X148940300Y-104940000D01*
X151016400Y-79921100D02*
X145295300Y-74200000D01*
X151016400Y-102863900D02*
X151016400Y-79921100D01*
X148940300Y-104940000D02*
X151016400Y-102863900D01*
X147040000Y-104940000D02*
X146409700Y-104940000D01*
X144937500Y-83400000D02*
X145295300Y-83400000D01*
X144534600Y-103064900D02*
X146409700Y-104940000D01*
X144534600Y-87701900D02*
X144534600Y-103064900D01*
X145859100Y-86377400D02*
X144534600Y-87701900D01*
X145859100Y-83963800D02*
X145859100Y-86377400D01*
X145295300Y-83400000D02*
X145859100Y-83963800D01*
X144937500Y-74600000D02*
X145295300Y-74600000D01*
X148310000Y-104300000D02*
X148940300Y-104300000D01*
X150856100Y-80160800D02*
X145295300Y-74600000D01*
X150856100Y-102384200D02*
X150856100Y-80160800D01*
X148940300Y-104300000D02*
X150856100Y-102384200D01*
X147040000Y-104300000D02*
X146409700Y-104300000D01*
X144937500Y-83000000D02*
X145295300Y-83000000D01*
X144694900Y-102585200D02*
X146409700Y-104300000D01*
X144694900Y-87768400D02*
X144694900Y-102585200D01*
X146049600Y-86413700D02*
X144694900Y-87768400D01*
X146049600Y-83754300D02*
X146049600Y-86413700D01*
X145295300Y-83000000D02*
X146049600Y-83754300D01*
X144937500Y-75000000D02*
X145295300Y-75000000D01*
X148310000Y-103660000D02*
X148940300Y-103660000D01*
X150695800Y-80400500D02*
X145295300Y-75000000D01*
X150695800Y-101904500D02*
X150695800Y-80400500D01*
X148940300Y-103660000D02*
X150695800Y-101904500D01*
X147040000Y-103660000D02*
X146409700Y-103660000D01*
X144937500Y-82600000D02*
X145295300Y-82600000D01*
X144855200Y-102105500D02*
X146409700Y-103660000D01*
X144855200Y-87834900D02*
X144855200Y-102105500D01*
X146260200Y-86429900D02*
X144855200Y-87834900D01*
X146260200Y-83564900D02*
X146260200Y-86429900D01*
X145295300Y-82600000D02*
X146260200Y-83564900D01*
X144937500Y-75400000D02*
X145295300Y-75400000D01*
X148310000Y-103020000D02*
X148940300Y-103020000D01*
X150535500Y-80640200D02*
X145295300Y-75400000D01*
X150535500Y-101424800D02*
X150535500Y-80640200D01*
X148940300Y-103020000D02*
X150535500Y-101424800D01*
X147040000Y-103020000D02*
X146409700Y-103020000D01*
X144937500Y-82200000D02*
X145295300Y-82200000D01*
X145015500Y-101625800D02*
X146409700Y-103020000D01*
X145015500Y-87901400D02*
X145015500Y-101625800D01*
X146420500Y-86496400D02*
X145015500Y-87901400D01*
X146420500Y-83325200D02*
X146420500Y-86496400D01*
X145295300Y-82200000D02*
X146420500Y-83325200D01*
X144937500Y-75800000D02*
X145295300Y-75800000D01*
X148310000Y-102380000D02*
X148940300Y-102380000D01*
X150375200Y-80879900D02*
X145295300Y-75800000D01*
X150375200Y-100945100D02*
X150375200Y-80879900D01*
X148940300Y-102380000D02*
X150375200Y-100945100D01*
X144937500Y-81800000D02*
X145295300Y-81800000D01*
X147040000Y-102380000D02*
X146409700Y-102380000D01*
X145175800Y-101146100D02*
X146409700Y-102380000D01*
X145175800Y-87967900D02*
X145175800Y-101146100D01*
X146580800Y-86562900D02*
X145175800Y-87967900D01*
X146580800Y-83085500D02*
X146580800Y-86562900D01*
X145295300Y-81800000D02*
X146580800Y-83085500D01*
X144937500Y-76200000D02*
X145295300Y-76200000D01*
X148310000Y-101740000D02*
X148940300Y-101740000D01*
X150214900Y-81119600D02*
X145295300Y-76200000D01*
X150214900Y-100465400D02*
X150214900Y-81119600D01*
X148940300Y-101740000D02*
X150214900Y-100465400D01*
X147040000Y-101740000D02*
X146409700Y-101740000D01*
X144937500Y-81400000D02*
X145036400Y-81400000D01*
X145036400Y-81400000D02*
X145295300Y-81400000D01*
X145336100Y-100666400D02*
X146409700Y-101740000D01*
X145336100Y-88034400D02*
X145336100Y-100666400D01*
X146741100Y-86629400D02*
X145336100Y-88034400D01*
X146741100Y-82845800D02*
X146741100Y-86629400D01*
X145295300Y-81400000D02*
X146741100Y-82845800D01*
X144937500Y-76600000D02*
X145295300Y-76600000D01*
X148310000Y-101100000D02*
X148940300Y-101100000D01*
X150054600Y-81359300D02*
X145295300Y-76600000D01*
X150054600Y-99985700D02*
X150054600Y-81359300D01*
X148940300Y-101100000D02*
X150054600Y-99985700D01*
X144937500Y-81000000D02*
X145295300Y-81000000D01*
X147040000Y-101100000D02*
X146784300Y-101100000D01*
X146784300Y-101100000D02*
X146409700Y-101100000D01*
X145496400Y-100186700D02*
X146409700Y-101100000D01*
X145496400Y-88100900D02*
X145496400Y-100186700D01*
X146901400Y-86695900D02*
X145496400Y-88100900D01*
X146901400Y-82606100D02*
X146901400Y-86695900D01*
X145295300Y-81000000D02*
X146901400Y-82606100D01*
X144937500Y-77000000D02*
X145295300Y-77000000D01*
X148310000Y-100460000D02*
X148940300Y-100460000D01*
X149894300Y-81599000D02*
X145295300Y-77000000D01*
X149894300Y-99506000D02*
X149894300Y-81599000D01*
X148940300Y-100460000D02*
X149894300Y-99506000D01*
X147040000Y-100460000D02*
X146409700Y-100460000D01*
X144937500Y-80600000D02*
X145295300Y-80600000D01*
X145656700Y-99707000D02*
X146409700Y-100460000D01*
X145656700Y-88167400D02*
X145656700Y-99707000D01*
X147061700Y-86762400D02*
X145656700Y-88167400D01*
X147061700Y-82366400D02*
X147061700Y-86762400D01*
X145295300Y-80600000D02*
X147061700Y-82366400D01*
X144937500Y-77400000D02*
X145295300Y-77400000D01*
X148310000Y-99820000D02*
X148940300Y-99820000D01*
X149734000Y-81838700D02*
X145295300Y-77400000D01*
X149734000Y-99026300D02*
X149734000Y-81838700D01*
X148940300Y-99820000D02*
X149734000Y-99026300D01*
X144919000Y-80200000D02*
X144911600Y-80192600D01*
X144937500Y-80200000D02*
X144919000Y-80200000D01*
X147040000Y-99820000D02*
X146409700Y-99820000D01*
X144937500Y-80200000D02*
X145295300Y-80200000D01*
X144937500Y-80200000D02*
X144967600Y-80230100D01*
X145817000Y-99227300D02*
X146409700Y-99820000D01*
X145817000Y-88233900D02*
X145817000Y-99227300D01*
X147222000Y-86828900D02*
X145817000Y-88233900D01*
X147222000Y-82126700D02*
X147222000Y-86828900D01*
X145295300Y-80200000D02*
X147222000Y-82126700D01*
X144937500Y-77800000D02*
X145295300Y-77800000D01*
X148310000Y-99180000D02*
X148940300Y-99180000D01*
X149573700Y-82078400D02*
X145295300Y-77800000D01*
X149573700Y-98546600D02*
X149573700Y-82078400D01*
X148940300Y-99180000D02*
X149573700Y-98546600D01*
X147040000Y-99180000D02*
X146409700Y-99180000D01*
X144937500Y-79800000D02*
X145036400Y-79800000D01*
X145036400Y-79800000D02*
X145295300Y-79800000D01*
X145977300Y-98747600D02*
X146409700Y-99180000D01*
X145977300Y-88308300D02*
X145977300Y-98747600D01*
X147382300Y-86903300D02*
X145977300Y-88308300D01*
X147382300Y-81887000D02*
X147382300Y-86903300D01*
X145295300Y-79800000D02*
X147382300Y-81887000D01*
X144937500Y-78200000D02*
X145295300Y-78200000D01*
X148310000Y-98540000D02*
X148940300Y-98540000D01*
X149413400Y-82318100D02*
X145295300Y-78200000D01*
X149413400Y-98066900D02*
X149413400Y-82318100D01*
X148940300Y-98540000D02*
X149413400Y-98066900D01*
X144937500Y-79400000D02*
X145295300Y-79400000D01*
X147040000Y-98540000D02*
X146409700Y-98540000D01*
X146137600Y-98267900D02*
X146409700Y-98540000D01*
X146137600Y-88374800D02*
X146137600Y-98267900D01*
X147542600Y-86969800D02*
X146137600Y-88374800D01*
X147542600Y-81647300D02*
X147542600Y-86969800D01*
X145295300Y-79400000D02*
X147542600Y-81647300D01*
X144937500Y-78600000D02*
X145295300Y-78600000D01*
X148310000Y-97900000D02*
X148940300Y-97900000D01*
X149253100Y-82557800D02*
X145295300Y-78600000D01*
X149253100Y-97587200D02*
X149253100Y-82557800D01*
X148940300Y-97900000D02*
X149253100Y-97587200D01*
X147040000Y-97900000D02*
X146409700Y-97900000D01*
X144937500Y-79000000D02*
X145295300Y-79000000D01*
X146297900Y-97788200D02*
X146409700Y-97900000D01*
X146297900Y-88441300D02*
X146297900Y-97788200D01*
X147702900Y-87036300D02*
X146297900Y-88441300D01*
X147702900Y-81407600D02*
X147702900Y-87036300D01*
X145295300Y-79000000D02*
X147702900Y-81407600D01*
X148310000Y-97280000D02*
X148310000Y-97260000D01*
X148310000Y-97260000D02*
X148310000Y-96770000D01*
X140410000Y-97280000D02*
X140410000Y-97260000D01*
X140410000Y-97260000D02*
X140410000Y-96770000D01*
X139140000Y-108160000D02*
X139140000Y-108670000D01*
X139140000Y-108160000D02*
X139140000Y-108140000D01*
X147040000Y-108160000D02*
X147040000Y-108670000D01*
X147040000Y-108160000D02*
X147040000Y-108140000D01*
X147040000Y-97280000D02*
X147040000Y-97260000D01*
X147040000Y-97260000D02*
X147040000Y-96770000D01*
X139140000Y-97280000D02*
X139140000Y-97260000D01*
X139140000Y-97260000D02*
X139140000Y-96770000D01*
X140410000Y-108160000D02*
X140410000Y-108670000D01*
X140410000Y-108160000D02*
X140410000Y-108140000D01*
X148310000Y-108160000D02*
X148310000Y-108670000D01*
X148310000Y-108160000D02*
X148310000Y-108140000D01*
D20*
G36*
X156673000Y-120273000D02*
X152027000Y-120273000D01*
X152027000Y-97127000D01*
X156673000Y-97127000D01*
X156673000Y-120273000D01*
X156673000Y-120273000D01*
G37*
X156673000Y-120273000D02*
X152027000Y-120273000D01*
X152027000Y-97127000D01*
X156673000Y-97127000D01*
X156673000Y-120273000D01*
M02*
