G04 #@! TF.FileFunction,Copper,L1,Top,Signal*
%FSLAX46Y46*%
G04 Gerber Fmt 4.6, Leading zero omitted, Abs format (unit mm)*
G04 Created by KiCad (PCBNEW (2016-03-20 BZR 6634, Git a4ba01f)-product) date 3/28/2016 1:32:43 PM*
%MOMM*%
G01*
G04 APERTURE LIST*
%ADD10C,0.100000*%
%ADD11R,0.475000X0.220000*%
%ADD12O,1.998980X1.998980*%
%ADD13R,1.998980X1.998980*%
%ADD14R,1.020000X0.380000*%
%ADD15R,2.032000X2.032000*%
%ADD16O,2.032000X2.032000*%
%ADD17C,0.470000*%
%ADD18C,0.080000*%
G04 APERTURE END LIST*
D10*
D11*
X144812500Y-85000000D03*
X142625000Y-85000000D03*
X144812500Y-84600000D03*
X142625000Y-84600000D03*
X144812500Y-84200000D03*
X142625000Y-84200000D03*
X144812500Y-83800000D03*
X142625000Y-83800000D03*
X144812500Y-83400000D03*
X142625000Y-83400000D03*
X144812500Y-83000000D03*
X142625000Y-83000000D03*
X144812500Y-82600000D03*
X142625000Y-82600000D03*
X144812500Y-82200000D03*
X142625000Y-82200000D03*
X144812500Y-81800000D03*
X142625000Y-81800000D03*
X144812500Y-81400000D03*
X142625000Y-81400000D03*
X144812500Y-81000000D03*
X142625000Y-81000000D03*
X144812500Y-80600000D03*
X142625000Y-80600000D03*
X144812500Y-80200000D03*
X142625000Y-80200000D03*
X144812500Y-79800000D03*
X142625000Y-79800000D03*
X144812500Y-79400000D03*
X142625000Y-79400000D03*
X144812500Y-79000000D03*
X142625000Y-79000000D03*
X144812500Y-78600000D03*
X142625000Y-78600000D03*
X144812500Y-78200000D03*
X142625000Y-78200000D03*
X144812500Y-77800000D03*
X142625000Y-77800000D03*
X144812500Y-77400000D03*
X142625000Y-77400000D03*
X144812500Y-77000000D03*
X142625000Y-77000000D03*
X144812500Y-76600000D03*
X142625000Y-76600000D03*
X144812500Y-76200000D03*
X142625000Y-76200000D03*
X144812500Y-75800000D03*
X142625000Y-75800000D03*
X144812500Y-75400000D03*
X142625000Y-75400000D03*
X144812500Y-75000000D03*
X142625000Y-75000000D03*
X144812500Y-74600000D03*
X142625000Y-74600000D03*
X144812500Y-74200000D03*
X142625000Y-74200000D03*
X144812500Y-73800000D03*
X142625000Y-73800000D03*
X144812500Y-73400000D03*
X142625000Y-73400000D03*
X144812500Y-73000000D03*
X142625000Y-73000000D03*
X144812500Y-72600000D03*
X142625000Y-72600000D03*
D12*
X148400000Y-114260000D03*
D13*
X148400000Y-116800000D03*
D14*
X148310000Y-108160000D03*
X147040000Y-108160000D03*
X148310000Y-107520000D03*
X147040000Y-107520000D03*
X148310000Y-106880000D03*
X147040000Y-106880000D03*
X148310000Y-106240000D03*
X147040000Y-106240000D03*
X148310000Y-105600000D03*
X147040000Y-105600000D03*
X148310000Y-104960000D03*
X147040000Y-104960000D03*
X148310000Y-104320000D03*
X147040000Y-104320000D03*
X148310000Y-103680000D03*
X147040000Y-103680000D03*
X148310000Y-103040000D03*
X147040000Y-103040000D03*
X148310000Y-102400000D03*
X147040000Y-102400000D03*
X148310000Y-101760000D03*
X147040000Y-101760000D03*
X148310000Y-101120000D03*
X147040000Y-101120000D03*
X148310000Y-100480000D03*
X147040000Y-100480000D03*
X148310000Y-99840000D03*
X147040000Y-99840000D03*
X148310000Y-99200000D03*
X147040000Y-99200000D03*
X148310000Y-98560000D03*
X147040000Y-98560000D03*
X148310000Y-97920000D03*
X147040000Y-97920000D03*
X148310000Y-97280000D03*
X147040000Y-97280000D03*
X140410000Y-108160000D03*
X139140000Y-108160000D03*
X140410000Y-107520000D03*
X139140000Y-107520000D03*
X140410000Y-106880000D03*
X139140000Y-106880000D03*
X140410000Y-106240000D03*
X139140000Y-106240000D03*
X140410000Y-105600000D03*
X139140000Y-105600000D03*
X140410000Y-104960000D03*
X139140000Y-104960000D03*
X140410000Y-104320000D03*
X139140000Y-104320000D03*
X140410000Y-103680000D03*
X139140000Y-103680000D03*
X140410000Y-103040000D03*
X139140000Y-103040000D03*
X140410000Y-102400000D03*
X139140000Y-102400000D03*
X140410000Y-101760000D03*
X139140000Y-101760000D03*
X140410000Y-101120000D03*
X139140000Y-101120000D03*
X140410000Y-100480000D03*
X139140000Y-100480000D03*
X140410000Y-99840000D03*
X139140000Y-99840000D03*
X140410000Y-99200000D03*
X139140000Y-99200000D03*
X140410000Y-98560000D03*
X139140000Y-98560000D03*
X140410000Y-97920000D03*
X139140000Y-97920000D03*
X140410000Y-97280000D03*
X139140000Y-97280000D03*
D15*
X142800000Y-116700000D03*
D16*
X142800000Y-114160000D03*
D17*
X140410000Y-108670000D03*
X148310000Y-108670000D03*
X147040000Y-96770000D03*
X139140000Y-96770000D03*
X139140000Y-108670000D03*
X147040000Y-108670000D03*
X148310000Y-96770000D03*
X140410000Y-96770000D03*
D18*
X148310000Y-107520000D02*
X148940300Y-107520000D01*
X144812500Y-72600000D02*
X145170300Y-72600000D01*
X151490100Y-78919800D02*
X145170300Y-72600000D01*
X151490100Y-104970200D02*
X151490100Y-78919800D01*
X148940300Y-107520000D02*
X151490100Y-104970200D01*
X147040000Y-107520000D02*
X146409700Y-107520000D01*
X144812500Y-85000000D02*
X144454700Y-85000000D01*
X143797000Y-104907300D02*
X146409700Y-107520000D01*
X143797000Y-85657700D02*
X143797000Y-104907300D01*
X144454700Y-85000000D02*
X143797000Y-85657700D01*
X148310000Y-106880000D02*
X148940300Y-106880000D01*
X144812500Y-73000000D02*
X145170300Y-73000000D01*
X151329800Y-79159500D02*
X145170300Y-73000000D01*
X151329800Y-104490500D02*
X151329800Y-79159500D01*
X148940300Y-106880000D02*
X151329800Y-104490500D01*
X147040000Y-106880000D02*
X146409700Y-106880000D01*
X144812500Y-84600000D02*
X145170300Y-84600000D01*
X143957300Y-104427600D02*
X146409700Y-106880000D01*
X143957300Y-86372800D02*
X143957300Y-104427600D01*
X145170300Y-85159800D02*
X143957300Y-86372800D01*
X145170300Y-84600000D02*
X145170300Y-85159800D01*
X148310000Y-106240000D02*
X148940300Y-106240000D01*
X144812500Y-73400000D02*
X145170300Y-73400000D01*
X151169500Y-79399200D02*
X145170300Y-73400000D01*
X151169500Y-104010800D02*
X151169500Y-79399200D01*
X148940300Y-106240000D02*
X151169500Y-104010800D01*
X144812500Y-84200000D02*
X145170300Y-84200000D01*
X147040000Y-106240000D02*
X146409700Y-106240000D01*
X144117600Y-103947900D02*
X146409700Y-106240000D01*
X144117600Y-86439300D02*
X144117600Y-103947900D01*
X145330600Y-85226300D02*
X144117600Y-86439300D01*
X145330600Y-84360300D02*
X145330600Y-85226300D01*
X145170300Y-84200000D02*
X145330600Y-84360300D01*
X148310000Y-105600000D02*
X148940300Y-105600000D01*
X144812500Y-73800000D02*
X145170300Y-73800000D01*
X151009200Y-79638900D02*
X145170300Y-73800000D01*
X151009200Y-103531100D02*
X151009200Y-79638900D01*
X148940300Y-105600000D02*
X151009200Y-103531100D01*
X144812500Y-83800000D02*
X145170300Y-83800000D01*
X147040000Y-105600000D02*
X146409700Y-105600000D01*
X144277900Y-103468200D02*
X146409700Y-105600000D01*
X144277900Y-86505800D02*
X144277900Y-103468200D01*
X145490900Y-85292800D02*
X144277900Y-86505800D01*
X145490900Y-84120600D02*
X145490900Y-85292800D01*
X145170300Y-83800000D02*
X145490900Y-84120600D01*
X144812500Y-74200000D02*
X145170300Y-74200000D01*
X148310000Y-104960000D02*
X148940300Y-104960000D01*
X150848900Y-79878600D02*
X145170300Y-74200000D01*
X150848900Y-103051400D02*
X150848900Y-79878600D01*
X148940300Y-104960000D02*
X150848900Y-103051400D01*
X144812500Y-83400000D02*
X145170300Y-83400000D01*
X147040000Y-104960000D02*
X146409700Y-104960000D01*
X144438200Y-102988500D02*
X146409700Y-104960000D01*
X144438200Y-86572300D02*
X144438200Y-102988500D01*
X145651200Y-85359300D02*
X144438200Y-86572300D01*
X145651200Y-83880900D02*
X145651200Y-85359300D01*
X145170300Y-83400000D02*
X145651200Y-83880900D01*
X144812500Y-74600000D02*
X145170300Y-74600000D01*
X148310000Y-104320000D02*
X148940300Y-104320000D01*
X150688600Y-80118300D02*
X145170300Y-74600000D01*
X150688600Y-102571700D02*
X150688600Y-80118300D01*
X148940300Y-104320000D02*
X150688600Y-102571700D01*
X144812500Y-83000000D02*
X145170300Y-83000000D01*
X147040000Y-104320000D02*
X146409700Y-104320000D01*
X144598500Y-102508800D02*
X146409700Y-104320000D01*
X144598500Y-86638800D02*
X144598500Y-102508800D01*
X145811500Y-85425800D02*
X144598500Y-86638800D01*
X145811500Y-83641200D02*
X145811500Y-85425800D01*
X145170300Y-83000000D02*
X145811500Y-83641200D01*
X144812500Y-75000000D02*
X145170300Y-75000000D01*
X148310000Y-103680000D02*
X148940300Y-103680000D01*
X150528300Y-80358000D02*
X145170300Y-75000000D01*
X150528300Y-102092000D02*
X150528300Y-80358000D01*
X148940300Y-103680000D02*
X150528300Y-102092000D01*
X144812500Y-82600000D02*
X145170300Y-82600000D01*
X147040000Y-103680000D02*
X146409700Y-103680000D01*
X144758800Y-102029100D02*
X146409700Y-103680000D01*
X144758800Y-86705300D02*
X144758800Y-102029100D01*
X145971800Y-85492300D02*
X144758800Y-86705300D01*
X145971800Y-83401500D02*
X145971800Y-85492300D01*
X145170300Y-82600000D02*
X145971800Y-83401500D01*
X144812500Y-75400000D02*
X145170300Y-75400000D01*
X148310000Y-103040000D02*
X148940300Y-103040000D01*
X150368000Y-80597700D02*
X145170300Y-75400000D01*
X150368000Y-101612300D02*
X150368000Y-80597700D01*
X148940300Y-103040000D02*
X150368000Y-101612300D01*
X144812500Y-82200000D02*
X145170300Y-82200000D01*
X147040000Y-103040000D02*
X146409700Y-103040000D01*
X144919100Y-101549400D02*
X146409700Y-103040000D01*
X144919100Y-86771800D02*
X144919100Y-101549400D01*
X146132100Y-85558800D02*
X144919100Y-86771800D01*
X146132100Y-83161800D02*
X146132100Y-85558800D01*
X145170300Y-82200000D02*
X146132100Y-83161800D01*
X148310000Y-102400000D02*
X148940300Y-102400000D01*
X144812500Y-75800000D02*
X145170300Y-75800000D01*
X150207700Y-80837400D02*
X145170300Y-75800000D01*
X150207700Y-101132600D02*
X150207700Y-80837400D01*
X148940300Y-102400000D02*
X150207700Y-101132600D01*
X147040000Y-102400000D02*
X146409700Y-102400000D01*
X144812500Y-81800000D02*
X145170300Y-81800000D01*
X145079400Y-101069700D02*
X146409700Y-102400000D01*
X145079400Y-86838300D02*
X145079400Y-101069700D01*
X146292400Y-85625300D02*
X145079400Y-86838300D01*
X146292400Y-82922100D02*
X146292400Y-85625300D01*
X145170300Y-81800000D02*
X146292400Y-82922100D01*
X144812500Y-76200000D02*
X145170300Y-76200000D01*
X148310000Y-101760000D02*
X148940300Y-101760000D01*
X150047400Y-81077100D02*
X145170300Y-76200000D01*
X150047400Y-100652900D02*
X150047400Y-81077100D01*
X148940300Y-101760000D02*
X150047400Y-100652900D01*
X147040000Y-101760000D02*
X146409700Y-101760000D01*
X144812500Y-81400000D02*
X145170300Y-81400000D01*
X145239700Y-100590000D02*
X146409700Y-101760000D01*
X145239700Y-86904800D02*
X145239700Y-100590000D01*
X146452700Y-85691800D02*
X145239700Y-86904800D01*
X146452700Y-82682400D02*
X146452700Y-85691800D01*
X145170300Y-81400000D02*
X146452700Y-82682400D01*
X144812500Y-76600000D02*
X145170300Y-76600000D01*
X148310000Y-101120000D02*
X148940300Y-101120000D01*
X149887100Y-81316800D02*
X145170300Y-76600000D01*
X149887100Y-100173200D02*
X149887100Y-81316800D01*
X148940300Y-101120000D02*
X149887100Y-100173200D01*
X147040000Y-101120000D02*
X146409700Y-101120000D01*
X144812500Y-81000000D02*
X145170300Y-81000000D01*
X145400000Y-100110300D02*
X146409700Y-101120000D01*
X145400000Y-86980100D02*
X145400000Y-100110300D01*
X146613000Y-85767100D02*
X145400000Y-86980100D01*
X146613000Y-82442700D02*
X146613000Y-85767100D01*
X145170300Y-81000000D02*
X146613000Y-82442700D01*
X144812500Y-77000000D02*
X145170300Y-77000000D01*
X148310000Y-100480000D02*
X148940300Y-100480000D01*
X149726800Y-81556500D02*
X145170300Y-77000000D01*
X149726800Y-99693500D02*
X149726800Y-81556500D01*
X148940300Y-100480000D02*
X149726800Y-99693500D01*
X147040000Y-100480000D02*
X146409700Y-100480000D01*
X144812500Y-80600000D02*
X145170300Y-80600000D01*
X145571500Y-99641800D02*
X146409700Y-100480000D01*
X145571500Y-87035400D02*
X145571500Y-99641800D01*
X146773300Y-85833600D02*
X145571500Y-87035400D01*
X146773300Y-82203000D02*
X146773300Y-85833600D01*
X145170300Y-80600000D02*
X146773300Y-82203000D01*
X144812500Y-77400000D02*
X145170300Y-77400000D01*
X148310000Y-99840000D02*
X148940300Y-99840000D01*
X149566500Y-81796200D02*
X145170300Y-77400000D01*
X149566500Y-99213800D02*
X149566500Y-81796200D01*
X148940300Y-99840000D02*
X149566500Y-99213800D01*
X147040000Y-99840000D02*
X146409700Y-99840000D01*
X144812500Y-80200000D02*
X145170300Y-80200000D01*
X145731800Y-99162100D02*
X146409700Y-99840000D01*
X145731800Y-87101900D02*
X145731800Y-99162100D01*
X146933700Y-85900000D02*
X145731800Y-87101900D01*
X146933700Y-81963400D02*
X146933700Y-85900000D01*
X145170300Y-80200000D02*
X146933700Y-81963400D01*
X144812500Y-77800000D02*
X145170300Y-77800000D01*
X148310000Y-99200000D02*
X148940300Y-99200000D01*
X149406200Y-82035900D02*
X145170300Y-77800000D01*
X149406200Y-98734100D02*
X149406200Y-82035900D01*
X148940300Y-99200000D02*
X149406200Y-98734100D01*
X147040000Y-99200000D02*
X146409700Y-99200000D01*
X144812500Y-79800000D02*
X145170300Y-79800000D01*
X145892100Y-98682400D02*
X146409700Y-99200000D01*
X145892100Y-87168400D02*
X145892100Y-98682400D01*
X147094000Y-85966500D02*
X145892100Y-87168400D01*
X147094000Y-81723700D02*
X147094000Y-85966500D01*
X145170300Y-79800000D02*
X147094000Y-81723700D01*
X148310000Y-98560000D02*
X148940300Y-98560000D01*
X144812500Y-78200000D02*
X145170300Y-78200000D01*
X149245900Y-82275600D02*
X145170300Y-78200000D01*
X149245900Y-98254400D02*
X149245900Y-82275600D01*
X148940300Y-98560000D02*
X149245900Y-98254400D01*
X147040000Y-98560000D02*
X146409700Y-98560000D01*
X144812500Y-79400000D02*
X145170300Y-79400000D01*
X146052400Y-98202700D02*
X146409700Y-98560000D01*
X146052400Y-87234900D02*
X146052400Y-98202700D01*
X147254300Y-86033000D02*
X146052400Y-87234900D01*
X147254300Y-81484000D02*
X147254300Y-86033000D01*
X145170300Y-79400000D02*
X147254300Y-81484000D01*
X148310000Y-97920000D02*
X148940300Y-97920000D01*
X144812500Y-78600000D02*
X145170300Y-78600000D01*
X149085600Y-82515300D02*
X145170300Y-78600000D01*
X149085600Y-97774700D02*
X149085600Y-82515300D01*
X148940300Y-97920000D02*
X149085600Y-97774700D01*
X147040000Y-97920000D02*
X146409700Y-97920000D01*
X144812500Y-79000000D02*
X145170300Y-79000000D01*
X146212700Y-97723000D02*
X146409700Y-97920000D01*
X146212700Y-87301400D02*
X146212700Y-97723000D01*
X147414600Y-86099500D02*
X146212700Y-87301400D01*
X147414600Y-81244300D02*
X147414600Y-86099500D01*
X145170300Y-79000000D02*
X147414600Y-81244300D01*
X140410000Y-107520000D02*
X141040300Y-107520000D01*
X142625000Y-85000000D02*
X142982800Y-85000000D01*
X143632500Y-85649700D02*
X142982800Y-85000000D01*
X143632500Y-104927800D02*
X143632500Y-85649700D01*
X141040300Y-107520000D02*
X143632500Y-104927800D01*
X139140000Y-107520000D02*
X138509700Y-107520000D01*
X142625000Y-72600000D02*
X142267200Y-72600000D01*
X135982400Y-104992700D02*
X138509700Y-107520000D01*
X135982400Y-78884800D02*
X135982400Y-104992700D01*
X142267200Y-72600000D02*
X135982400Y-78884800D01*
X140410000Y-106880000D02*
X141040300Y-106880000D01*
X142625000Y-84600000D02*
X142267200Y-84600000D01*
X142267200Y-85159900D02*
X142267200Y-84600000D01*
X143472200Y-86364900D02*
X142267200Y-85159900D01*
X143472200Y-104448100D02*
X143472200Y-86364900D01*
X141040300Y-106880000D02*
X143472200Y-104448100D01*
X139140000Y-106880000D02*
X138509700Y-106880000D01*
X142625000Y-73000000D02*
X142267200Y-73000000D01*
X136142700Y-104513000D02*
X138509700Y-106880000D01*
X136142700Y-79124500D02*
X136142700Y-104513000D01*
X142267200Y-73000000D02*
X136142700Y-79124500D01*
X140410000Y-106240000D02*
X141040300Y-106240000D01*
X142625000Y-84200000D02*
X142267200Y-84200000D01*
X142106900Y-84360300D02*
X142267200Y-84200000D01*
X142106900Y-85226400D02*
X142106900Y-84360300D01*
X143311900Y-86431400D02*
X142106900Y-85226400D01*
X143311900Y-103968400D02*
X143311900Y-86431400D01*
X141040300Y-106240000D02*
X143311900Y-103968400D01*
X139140000Y-106240000D02*
X138509700Y-106240000D01*
X142625000Y-73400000D02*
X142267200Y-73400000D01*
X136303000Y-104033300D02*
X138509700Y-106240000D01*
X136303000Y-79364200D02*
X136303000Y-104033300D01*
X142267200Y-73400000D02*
X136303000Y-79364200D01*
X142625000Y-83800000D02*
X142267200Y-83800000D01*
X140410000Y-105600000D02*
X141040300Y-105600000D01*
X141946600Y-84120600D02*
X142267200Y-83800000D01*
X141946600Y-85292900D02*
X141946600Y-84120600D01*
X143151600Y-86497900D02*
X141946600Y-85292900D01*
X143151600Y-103488700D02*
X143151600Y-86497900D01*
X141040300Y-105600000D02*
X143151600Y-103488700D01*
X139140000Y-105600000D02*
X138509700Y-105600000D01*
X142625000Y-73800000D02*
X142267200Y-73800000D01*
X136463300Y-103553600D02*
X138509700Y-105600000D01*
X136463300Y-79603900D02*
X136463300Y-103553600D01*
X142267200Y-73800000D02*
X136463300Y-79603900D01*
X142625000Y-83400000D02*
X142267200Y-83400000D01*
X140410000Y-104960000D02*
X141040300Y-104960000D01*
X141786300Y-83880900D02*
X142267200Y-83400000D01*
X141786300Y-85359400D02*
X141786300Y-83880900D01*
X142991300Y-86564400D02*
X141786300Y-85359400D01*
X142991300Y-103009000D02*
X142991300Y-86564400D01*
X141040300Y-104960000D02*
X142991300Y-103009000D01*
X142625000Y-74200000D02*
X142267200Y-74200000D01*
X139140000Y-104960000D02*
X138509700Y-104960000D01*
X136623600Y-103073900D02*
X138509700Y-104960000D01*
X136623600Y-79843600D02*
X136623600Y-103073900D01*
X142267200Y-74200000D02*
X136623600Y-79843600D01*
X142625000Y-83000000D02*
X142267200Y-83000000D01*
X140410000Y-104320000D02*
X141040300Y-104320000D01*
X141626000Y-83641200D02*
X142267200Y-83000000D01*
X141626000Y-85425900D02*
X141626000Y-83641200D01*
X142831000Y-86630900D02*
X141626000Y-85425900D01*
X142831000Y-102529300D02*
X142831000Y-86630900D01*
X141040300Y-104320000D02*
X142831000Y-102529300D01*
X142625000Y-74600000D02*
X142267200Y-74600000D01*
X139140000Y-104320000D02*
X138509700Y-104320000D01*
X136783900Y-102594200D02*
X138509700Y-104320000D01*
X136783900Y-80083300D02*
X136783900Y-102594200D01*
X142267200Y-74600000D02*
X136783900Y-80083300D01*
X142625000Y-82600000D02*
X142267200Y-82600000D01*
X140410000Y-103680000D02*
X141040300Y-103680000D01*
X141465700Y-83401500D02*
X142267200Y-82600000D01*
X141465700Y-85501900D02*
X141465700Y-83401500D01*
X142670700Y-86706900D02*
X141465700Y-85501900D01*
X142670700Y-102049600D02*
X142670700Y-86706900D01*
X141040300Y-103680000D02*
X142670700Y-102049600D01*
X142625000Y-75000000D02*
X142267200Y-75000000D01*
X139140000Y-103680000D02*
X138509700Y-103680000D01*
X136944200Y-102114500D02*
X138509700Y-103680000D01*
X136944200Y-80323000D02*
X136944200Y-102114500D01*
X142267200Y-75000000D02*
X136944200Y-80323000D01*
X142625000Y-82200000D02*
X142267200Y-82200000D01*
X140410000Y-103040000D02*
X141040300Y-103040000D01*
X141305400Y-83161800D02*
X142267200Y-82200000D01*
X141305400Y-85568400D02*
X141305400Y-83161800D01*
X142510400Y-86773400D02*
X141305400Y-85568400D01*
X142510400Y-101569900D02*
X142510400Y-86773400D01*
X141040300Y-103040000D02*
X142510400Y-101569900D01*
X142625000Y-75400000D02*
X142267200Y-75400000D01*
X139140000Y-103040000D02*
X138509700Y-103040000D01*
X137104500Y-101634800D02*
X138509700Y-103040000D01*
X137104500Y-80562700D02*
X137104500Y-101634800D01*
X142267200Y-75400000D02*
X137104500Y-80562700D01*
X140410000Y-102400000D02*
X141040300Y-102400000D01*
X142625000Y-81800000D02*
X142267200Y-81800000D01*
X141145100Y-82922100D02*
X142267200Y-81800000D01*
X141145100Y-85634900D02*
X141145100Y-82922100D01*
X142350100Y-86839900D02*
X141145100Y-85634900D01*
X142350100Y-101090200D02*
X142350100Y-86839900D01*
X141040300Y-102400000D02*
X142350100Y-101090200D01*
X139140000Y-102400000D02*
X138509700Y-102400000D01*
X142625000Y-75800000D02*
X142267200Y-75800000D01*
X137264800Y-101155100D02*
X138509700Y-102400000D01*
X137264800Y-80802400D02*
X137264800Y-101155100D01*
X142267200Y-75800000D02*
X137264800Y-80802400D01*
X140410000Y-101760000D02*
X141040300Y-101760000D01*
X142625000Y-81400000D02*
X142267200Y-81400000D01*
X140984800Y-82682400D02*
X142267200Y-81400000D01*
X140984800Y-85701400D02*
X140984800Y-82682400D01*
X142189800Y-86906400D02*
X140984800Y-85701400D01*
X142189800Y-100610500D02*
X142189800Y-86906400D01*
X141040300Y-101760000D02*
X142189800Y-100610500D01*
X142625000Y-76200000D02*
X142267200Y-76200000D01*
X139140000Y-101760000D02*
X138509700Y-101760000D01*
X137425100Y-100675400D02*
X138509700Y-101760000D01*
X137425100Y-81042100D02*
X137425100Y-100675400D01*
X142267200Y-76200000D02*
X137425100Y-81042100D01*
X140410000Y-101120000D02*
X141040300Y-101120000D01*
X142625000Y-81000000D02*
X142267200Y-81000000D01*
X140824500Y-82442700D02*
X142267200Y-81000000D01*
X140824500Y-85767900D02*
X140824500Y-82442700D01*
X142029500Y-86972900D02*
X140824500Y-85767900D01*
X142029500Y-100130800D02*
X142029500Y-86972900D01*
X141040300Y-101120000D02*
X142029500Y-100130800D01*
X142625000Y-76600000D02*
X142267200Y-76600000D01*
X139140000Y-101120000D02*
X138509700Y-101120000D01*
X137585400Y-100195700D02*
X138509700Y-101120000D01*
X137585400Y-81281800D02*
X137585400Y-100195700D01*
X142267200Y-76600000D02*
X137585400Y-81281800D01*
X140410000Y-100480000D02*
X141040300Y-100480000D01*
X142625000Y-80600000D02*
X142267200Y-80600000D01*
X140664200Y-82203000D02*
X142267200Y-80600000D01*
X140664200Y-85834400D02*
X140664200Y-82203000D01*
X141869200Y-87039400D02*
X140664200Y-85834400D01*
X141869200Y-99651100D02*
X141869200Y-87039400D01*
X141040300Y-100480000D02*
X141869200Y-99651100D01*
X142625000Y-77000000D02*
X142267200Y-77000000D01*
X139140000Y-100480000D02*
X138509700Y-100480000D01*
X137745700Y-99716000D02*
X138509700Y-100480000D01*
X137745700Y-81521500D02*
X137745700Y-99716000D01*
X142267200Y-77000000D02*
X137745700Y-81521500D01*
X140410000Y-99840000D02*
X141040300Y-99840000D01*
X142625000Y-80200000D02*
X142267200Y-80200000D01*
X140503900Y-81963300D02*
X142267200Y-80200000D01*
X140503900Y-85900900D02*
X140503900Y-81963300D01*
X141708900Y-87105900D02*
X140503900Y-85900900D01*
X141708900Y-99171400D02*
X141708900Y-87105900D01*
X141040300Y-99840000D02*
X141708900Y-99171400D01*
X142625000Y-77400000D02*
X142267200Y-77400000D01*
X139140000Y-99840000D02*
X138509700Y-99840000D01*
X137906000Y-99236300D02*
X138509700Y-99840000D01*
X137906000Y-81761200D02*
X137906000Y-99236300D01*
X142267200Y-77400000D02*
X137906000Y-81761200D01*
X140410000Y-99200000D02*
X141040300Y-99200000D01*
X142625000Y-79800000D02*
X142267200Y-79800000D01*
X140343600Y-81723600D02*
X142267200Y-79800000D01*
X140343600Y-85967400D02*
X140343600Y-81723600D01*
X141548600Y-87172400D02*
X140343600Y-85967400D01*
X141548600Y-98691700D02*
X141548600Y-87172400D01*
X141040300Y-99200000D02*
X141548600Y-98691700D01*
X142625000Y-77800000D02*
X142267200Y-77800000D01*
X139140000Y-99200000D02*
X138509700Y-99200000D01*
X138066300Y-98756600D02*
X138509700Y-99200000D01*
X138066300Y-82000900D02*
X138066300Y-98756600D01*
X142267200Y-77800000D02*
X138066300Y-82000900D01*
X140410000Y-98560000D02*
X141040300Y-98560000D01*
X142625000Y-79400000D02*
X142267200Y-79400000D01*
X140173800Y-81493400D02*
X142267200Y-79400000D01*
X140173800Y-86024400D02*
X140173800Y-81493400D01*
X141388300Y-87238900D02*
X140173800Y-86024400D01*
X141388300Y-98212000D02*
X141388300Y-87238900D01*
X141040300Y-98560000D02*
X141388300Y-98212000D01*
X139140000Y-98560000D02*
X138509700Y-98560000D01*
X142625000Y-78200000D02*
X142267200Y-78200000D01*
X138226600Y-98276900D02*
X138509700Y-98560000D01*
X138226600Y-82240600D02*
X138226600Y-98276900D01*
X142267200Y-78200000D02*
X138226600Y-82240600D01*
X140410000Y-97920000D02*
X141040300Y-97920000D01*
X142625000Y-79000000D02*
X142267200Y-79000000D01*
X139995800Y-81271400D02*
X142267200Y-79000000D01*
X139995800Y-86073100D02*
X139995800Y-81271400D01*
X141228000Y-87305300D02*
X139995800Y-86073100D01*
X141228000Y-97732300D02*
X141228000Y-87305300D01*
X141040300Y-97920000D02*
X141228000Y-97732300D01*
X139140000Y-97920000D02*
X138509700Y-97920000D01*
X142625000Y-78600000D02*
X142267200Y-78600000D01*
X138386900Y-97797200D02*
X138509700Y-97920000D01*
X138386900Y-82480300D02*
X138386900Y-97797200D01*
X142267200Y-78600000D02*
X138386900Y-82480300D01*
X140410000Y-108160000D02*
X140410000Y-108670000D01*
X148310000Y-108160000D02*
X148310000Y-108670000D01*
X147040000Y-97280000D02*
X147040000Y-96770000D01*
X139140000Y-97280000D02*
X139140000Y-96770000D01*
X139140000Y-108160000D02*
X139140000Y-108670000D01*
X147040000Y-108160000D02*
X147040000Y-108670000D01*
X148310000Y-97280000D02*
X148310000Y-96770000D01*
X140410000Y-97280000D02*
X140410000Y-96770000D01*
M02*
