G04 #@! TF.FileFunction,Copper,L2,Inr,Signal*
%FSLAX46Y46*%
G04 Gerber Fmt 4.6, Leading zero omitted, Abs format (unit mm)*
G04 Created by KiCad (PCBNEW (2016-03-20 BZR 6634, Git a4ba01f)-product) date 3/28/2016 1:32:43 PM*
%MOMM*%
G01*
G04 APERTURE LIST*
%ADD10C,0.100000*%
%ADD11O,1.998980X1.998980*%
%ADD12R,1.998980X1.998980*%
%ADD13R,2.032000X2.032000*%
%ADD14O,2.032000X2.032000*%
%ADD15C,0.470000*%
%ADD16C,0.254000*%
G04 APERTURE END LIST*
D10*
D11*
X148400000Y-114260000D03*
D12*
X148400000Y-116800000D03*
D13*
X142800000Y-116700000D03*
D14*
X142800000Y-114160000D03*
D15*
X140410000Y-108670000D03*
X148310000Y-108670000D03*
X147040000Y-96770000D03*
X139140000Y-96770000D03*
X139140000Y-108670000D03*
X147040000Y-108670000D03*
X148310000Y-96770000D03*
X140410000Y-96770000D03*
D16*
G36*
X151518000Y-78816808D02*
X151518000Y-118318000D01*
X137352141Y-118318000D01*
X137620999Y-118049611D01*
X137768832Y-117693592D01*
X137769168Y-117308100D01*
X137621957Y-116951823D01*
X137349611Y-116679001D01*
X136993592Y-116531168D01*
X136608100Y-116530832D01*
X136251823Y-116678043D01*
X135982000Y-116947395D01*
X135982000Y-115552141D01*
X136250389Y-115820999D01*
X136606408Y-115968832D01*
X136991900Y-115969168D01*
X137348177Y-115821957D01*
X137486375Y-115684000D01*
X141572945Y-115684000D01*
X141572945Y-117716000D01*
X141589011Y-117796767D01*
X141634762Y-117865238D01*
X141703233Y-117910989D01*
X141784000Y-117927055D01*
X143816000Y-117927055D01*
X143896767Y-117910989D01*
X143965238Y-117865238D01*
X144010989Y-117796767D01*
X144027055Y-117716000D01*
X144027055Y-115800510D01*
X147189455Y-115800510D01*
X147189455Y-117799490D01*
X147205521Y-117880257D01*
X147251272Y-117948728D01*
X147319743Y-117994479D01*
X147400510Y-118010545D01*
X149399490Y-118010545D01*
X149480257Y-117994479D01*
X149548728Y-117948728D01*
X149594479Y-117880257D01*
X149610545Y-117799490D01*
X149610545Y-115800510D01*
X149594479Y-115719743D01*
X149548728Y-115651272D01*
X149480257Y-115605521D01*
X149399490Y-115589455D01*
X147400510Y-115589455D01*
X147319743Y-115605521D01*
X147251272Y-115651272D01*
X147205521Y-115719743D01*
X147189455Y-115800510D01*
X144027055Y-115800510D01*
X144027055Y-115684000D01*
X144010989Y-115603233D01*
X143965238Y-115534762D01*
X143896767Y-115489011D01*
X143816000Y-115472945D01*
X141784000Y-115472945D01*
X141703233Y-115489011D01*
X141634762Y-115534762D01*
X141589011Y-115603233D01*
X141572945Y-115684000D01*
X137486375Y-115684000D01*
X137620999Y-115549611D01*
X137768832Y-115193592D01*
X137769168Y-114808100D01*
X137621957Y-114451823D01*
X137349611Y-114179001D01*
X136993592Y-114031168D01*
X136608100Y-114030832D01*
X136251823Y-114178043D01*
X135982000Y-114447395D01*
X135982000Y-113052141D01*
X136250389Y-113320999D01*
X136606408Y-113468832D01*
X136991900Y-113469168D01*
X137348177Y-113321957D01*
X137620999Y-113049611D01*
X137768832Y-112693592D01*
X137768833Y-112691900D01*
X138330832Y-112691900D01*
X138478043Y-113048177D01*
X138750389Y-113320999D01*
X139106408Y-113468832D01*
X139491900Y-113469168D01*
X139848177Y-113321957D01*
X140120999Y-113049611D01*
X140268832Y-112693592D01*
X140269168Y-112308100D01*
X140121957Y-111951823D01*
X139849611Y-111679001D01*
X139493592Y-111531168D01*
X139108100Y-111530832D01*
X138751823Y-111678043D01*
X138479001Y-111950389D01*
X138331168Y-112306408D01*
X138330832Y-112691900D01*
X137768833Y-112691900D01*
X137769168Y-112308100D01*
X137621957Y-111951823D01*
X137349611Y-111679001D01*
X136993592Y-111531168D01*
X136608100Y-111530832D01*
X136251823Y-111678043D01*
X135982000Y-111947395D01*
X135982000Y-108757533D01*
X138697924Y-108757533D01*
X138765072Y-108920046D01*
X138889300Y-109044491D01*
X139051695Y-109111923D01*
X139227533Y-109112076D01*
X139390046Y-109044928D01*
X139514491Y-108920700D01*
X139581923Y-108758305D01*
X139581923Y-108757533D01*
X146597924Y-108757533D01*
X146665072Y-108920046D01*
X146789300Y-109044491D01*
X146951695Y-109111923D01*
X147127533Y-109112076D01*
X147290046Y-109044928D01*
X147414491Y-108920700D01*
X147481923Y-108758305D01*
X147482076Y-108582467D01*
X147414928Y-108419954D01*
X147290700Y-108295509D01*
X147128305Y-108228077D01*
X146952467Y-108227924D01*
X146789954Y-108295072D01*
X146665509Y-108419300D01*
X146598077Y-108581695D01*
X146597924Y-108757533D01*
X139581923Y-108757533D01*
X139582076Y-108582467D01*
X139514928Y-108419954D01*
X139390700Y-108295509D01*
X139228305Y-108228077D01*
X139052467Y-108227924D01*
X138889954Y-108295072D01*
X138765509Y-108419300D01*
X138698077Y-108581695D01*
X138697924Y-108757533D01*
X135982000Y-108757533D01*
X135982000Y-96857533D01*
X139967924Y-96857533D01*
X140035072Y-97020046D01*
X140159300Y-97144491D01*
X140321695Y-97211923D01*
X140497533Y-97212076D01*
X140660046Y-97144928D01*
X140784491Y-97020700D01*
X140851923Y-96858305D01*
X140851923Y-96857533D01*
X147867924Y-96857533D01*
X147935072Y-97020046D01*
X148059300Y-97144491D01*
X148221695Y-97211923D01*
X148397533Y-97212076D01*
X148560046Y-97144928D01*
X148684491Y-97020700D01*
X148751923Y-96858305D01*
X148752076Y-96682467D01*
X148684928Y-96519954D01*
X148560700Y-96395509D01*
X148398305Y-96328077D01*
X148222467Y-96327924D01*
X148059954Y-96395072D01*
X147935509Y-96519300D01*
X147868077Y-96681695D01*
X147867924Y-96857533D01*
X140851923Y-96857533D01*
X140852076Y-96682467D01*
X140784928Y-96519954D01*
X140660700Y-96395509D01*
X140498305Y-96328077D01*
X140322467Y-96327924D01*
X140159954Y-96395072D01*
X140035509Y-96519300D01*
X139968077Y-96681695D01*
X139967924Y-96857533D01*
X135982000Y-96857533D01*
X135982000Y-78816808D01*
X142316808Y-72482000D01*
X145183192Y-72482000D01*
X151518000Y-78816808D01*
X151518000Y-78816808D01*
G37*
X151518000Y-78816808D02*
X151518000Y-118318000D01*
X137352141Y-118318000D01*
X137620999Y-118049611D01*
X137768832Y-117693592D01*
X137769168Y-117308100D01*
X137621957Y-116951823D01*
X137349611Y-116679001D01*
X136993592Y-116531168D01*
X136608100Y-116530832D01*
X136251823Y-116678043D01*
X135982000Y-116947395D01*
X135982000Y-115552141D01*
X136250389Y-115820999D01*
X136606408Y-115968832D01*
X136991900Y-115969168D01*
X137348177Y-115821957D01*
X137486375Y-115684000D01*
X141572945Y-115684000D01*
X141572945Y-117716000D01*
X141589011Y-117796767D01*
X141634762Y-117865238D01*
X141703233Y-117910989D01*
X141784000Y-117927055D01*
X143816000Y-117927055D01*
X143896767Y-117910989D01*
X143965238Y-117865238D01*
X144010989Y-117796767D01*
X144027055Y-117716000D01*
X144027055Y-115800510D01*
X147189455Y-115800510D01*
X147189455Y-117799490D01*
X147205521Y-117880257D01*
X147251272Y-117948728D01*
X147319743Y-117994479D01*
X147400510Y-118010545D01*
X149399490Y-118010545D01*
X149480257Y-117994479D01*
X149548728Y-117948728D01*
X149594479Y-117880257D01*
X149610545Y-117799490D01*
X149610545Y-115800510D01*
X149594479Y-115719743D01*
X149548728Y-115651272D01*
X149480257Y-115605521D01*
X149399490Y-115589455D01*
X147400510Y-115589455D01*
X147319743Y-115605521D01*
X147251272Y-115651272D01*
X147205521Y-115719743D01*
X147189455Y-115800510D01*
X144027055Y-115800510D01*
X144027055Y-115684000D01*
X144010989Y-115603233D01*
X143965238Y-115534762D01*
X143896767Y-115489011D01*
X143816000Y-115472945D01*
X141784000Y-115472945D01*
X141703233Y-115489011D01*
X141634762Y-115534762D01*
X141589011Y-115603233D01*
X141572945Y-115684000D01*
X137486375Y-115684000D01*
X137620999Y-115549611D01*
X137768832Y-115193592D01*
X137769168Y-114808100D01*
X137621957Y-114451823D01*
X137349611Y-114179001D01*
X136993592Y-114031168D01*
X136608100Y-114030832D01*
X136251823Y-114178043D01*
X135982000Y-114447395D01*
X135982000Y-113052141D01*
X136250389Y-113320999D01*
X136606408Y-113468832D01*
X136991900Y-113469168D01*
X137348177Y-113321957D01*
X137620999Y-113049611D01*
X137768832Y-112693592D01*
X137768833Y-112691900D01*
X138330832Y-112691900D01*
X138478043Y-113048177D01*
X138750389Y-113320999D01*
X139106408Y-113468832D01*
X139491900Y-113469168D01*
X139848177Y-113321957D01*
X140120999Y-113049611D01*
X140268832Y-112693592D01*
X140269168Y-112308100D01*
X140121957Y-111951823D01*
X139849611Y-111679001D01*
X139493592Y-111531168D01*
X139108100Y-111530832D01*
X138751823Y-111678043D01*
X138479001Y-111950389D01*
X138331168Y-112306408D01*
X138330832Y-112691900D01*
X137768833Y-112691900D01*
X137769168Y-112308100D01*
X137621957Y-111951823D01*
X137349611Y-111679001D01*
X136993592Y-111531168D01*
X136608100Y-111530832D01*
X136251823Y-111678043D01*
X135982000Y-111947395D01*
X135982000Y-108757533D01*
X138697924Y-108757533D01*
X138765072Y-108920046D01*
X138889300Y-109044491D01*
X139051695Y-109111923D01*
X139227533Y-109112076D01*
X139390046Y-109044928D01*
X139514491Y-108920700D01*
X139581923Y-108758305D01*
X139581923Y-108757533D01*
X146597924Y-108757533D01*
X146665072Y-108920046D01*
X146789300Y-109044491D01*
X146951695Y-109111923D01*
X147127533Y-109112076D01*
X147290046Y-109044928D01*
X147414491Y-108920700D01*
X147481923Y-108758305D01*
X147482076Y-108582467D01*
X147414928Y-108419954D01*
X147290700Y-108295509D01*
X147128305Y-108228077D01*
X146952467Y-108227924D01*
X146789954Y-108295072D01*
X146665509Y-108419300D01*
X146598077Y-108581695D01*
X146597924Y-108757533D01*
X139581923Y-108757533D01*
X139582076Y-108582467D01*
X139514928Y-108419954D01*
X139390700Y-108295509D01*
X139228305Y-108228077D01*
X139052467Y-108227924D01*
X138889954Y-108295072D01*
X138765509Y-108419300D01*
X138698077Y-108581695D01*
X138697924Y-108757533D01*
X135982000Y-108757533D01*
X135982000Y-96857533D01*
X139967924Y-96857533D01*
X140035072Y-97020046D01*
X140159300Y-97144491D01*
X140321695Y-97211923D01*
X140497533Y-97212076D01*
X140660046Y-97144928D01*
X140784491Y-97020700D01*
X140851923Y-96858305D01*
X140851923Y-96857533D01*
X147867924Y-96857533D01*
X147935072Y-97020046D01*
X148059300Y-97144491D01*
X148221695Y-97211923D01*
X148397533Y-97212076D01*
X148560046Y-97144928D01*
X148684491Y-97020700D01*
X148751923Y-96858305D01*
X148752076Y-96682467D01*
X148684928Y-96519954D01*
X148560700Y-96395509D01*
X148398305Y-96328077D01*
X148222467Y-96327924D01*
X148059954Y-96395072D01*
X147935509Y-96519300D01*
X147868077Y-96681695D01*
X147867924Y-96857533D01*
X140851923Y-96857533D01*
X140852076Y-96682467D01*
X140784928Y-96519954D01*
X140660700Y-96395509D01*
X140498305Y-96328077D01*
X140322467Y-96327924D01*
X140159954Y-96395072D01*
X140035509Y-96519300D01*
X139968077Y-96681695D01*
X139967924Y-96857533D01*
X135982000Y-96857533D01*
X135982000Y-78816808D01*
X142316808Y-72482000D01*
X145183192Y-72482000D01*
X151518000Y-78816808D01*
M02*
