G04 #@! TF.FileFunction,Copper,L3,Inr,Signal*
%FSLAX46Y46*%
G04 Gerber Fmt 4.6, Leading zero omitted, Abs format (unit mm)*
G04 Created by KiCad (PCBNEW (2016-03-20 BZR 6634, Git a4ba01f)-product) date 3/30/2016 9:29:24 AM*
%MOMM*%
G01*
G04 APERTURE LIST*
%ADD10C,0.100000*%
%ADD11O,1.998980X1.998980*%
%ADD12R,1.998980X1.998980*%
%ADD13R,2.032000X2.032000*%
%ADD14O,2.032000X2.032000*%
%ADD15C,0.470000*%
%ADD16C,0.254000*%
G04 APERTURE END LIST*
D10*
D11*
X153600000Y-119160000D03*
D12*
X153600000Y-121700000D03*
D13*
X148400000Y-121700000D03*
D14*
X148400000Y-119160000D03*
D15*
X139140000Y-108670000D03*
X147040000Y-108670000D03*
X148310000Y-96770000D03*
X140410000Y-96770000D03*
X140410000Y-108670000D03*
X148310000Y-108670000D03*
X147040000Y-96770000D03*
X139140000Y-96770000D03*
D16*
G36*
X151573000Y-78852606D02*
X151573000Y-107500000D01*
X151582667Y-107548601D01*
X151610197Y-107589803D01*
X156673000Y-112652606D01*
X156673000Y-123268000D01*
X139902228Y-123268000D01*
X140120999Y-123049611D01*
X140268832Y-122693592D01*
X140269168Y-122308100D01*
X140121957Y-121951823D01*
X139849611Y-121679001D01*
X139493592Y-121531168D01*
X139108100Y-121530832D01*
X138751823Y-121678043D01*
X138479001Y-121950389D01*
X138331168Y-122306408D01*
X138330832Y-122691900D01*
X138478043Y-123048177D01*
X138697482Y-123268000D01*
X137402228Y-123268000D01*
X137620999Y-123049611D01*
X137768832Y-122693592D01*
X137769168Y-122308100D01*
X137621957Y-121951823D01*
X137349611Y-121679001D01*
X136993592Y-121531168D01*
X136608100Y-121530832D01*
X136251823Y-121678043D01*
X135979001Y-121950389D01*
X135927000Y-122075620D01*
X135927000Y-120424644D01*
X135978043Y-120548177D01*
X136250389Y-120820999D01*
X136606408Y-120968832D01*
X136991900Y-120969168D01*
X137348177Y-120821957D01*
X137620999Y-120549611D01*
X137768832Y-120193592D01*
X137768833Y-120191900D01*
X138330832Y-120191900D01*
X138478043Y-120548177D01*
X138750389Y-120820999D01*
X139106408Y-120968832D01*
X139491900Y-120969168D01*
X139848177Y-120821957D01*
X139986375Y-120684000D01*
X147172945Y-120684000D01*
X147172945Y-122716000D01*
X147189011Y-122796767D01*
X147234762Y-122865238D01*
X147303233Y-122910989D01*
X147384000Y-122927055D01*
X149416000Y-122927055D01*
X149496767Y-122910989D01*
X149565238Y-122865238D01*
X149610989Y-122796767D01*
X149627055Y-122716000D01*
X149627055Y-120700510D01*
X152389455Y-120700510D01*
X152389455Y-122699490D01*
X152405521Y-122780257D01*
X152451272Y-122848728D01*
X152519743Y-122894479D01*
X152600510Y-122910545D01*
X154599490Y-122910545D01*
X154680257Y-122894479D01*
X154748728Y-122848728D01*
X154794479Y-122780257D01*
X154810545Y-122699490D01*
X154810545Y-120700510D01*
X154794479Y-120619743D01*
X154748728Y-120551272D01*
X154680257Y-120505521D01*
X154599490Y-120489455D01*
X152600510Y-120489455D01*
X152519743Y-120505521D01*
X152451272Y-120551272D01*
X152405521Y-120619743D01*
X152389455Y-120700510D01*
X149627055Y-120700510D01*
X149627055Y-120684000D01*
X149610989Y-120603233D01*
X149565238Y-120534762D01*
X149496767Y-120489011D01*
X149416000Y-120472945D01*
X147384000Y-120472945D01*
X147303233Y-120489011D01*
X147234762Y-120534762D01*
X147189011Y-120603233D01*
X147172945Y-120684000D01*
X139986375Y-120684000D01*
X140120999Y-120549611D01*
X140268832Y-120193592D01*
X140269168Y-119808100D01*
X140121957Y-119451823D01*
X139849611Y-119179001D01*
X139493592Y-119031168D01*
X139108100Y-119030832D01*
X138751823Y-119178043D01*
X138479001Y-119450389D01*
X138331168Y-119806408D01*
X138330832Y-120191900D01*
X137768833Y-120191900D01*
X137769168Y-119808100D01*
X137621957Y-119451823D01*
X137349611Y-119179001D01*
X136993592Y-119031168D01*
X136608100Y-119030832D01*
X136251823Y-119178043D01*
X135979001Y-119450389D01*
X135927000Y-119575620D01*
X135927000Y-117924644D01*
X135978043Y-118048177D01*
X136250389Y-118320999D01*
X136606408Y-118468832D01*
X136991900Y-118469168D01*
X137348177Y-118321957D01*
X137620999Y-118049611D01*
X137768832Y-117693592D01*
X137768833Y-117691900D01*
X138330832Y-117691900D01*
X138478043Y-118048177D01*
X138750389Y-118320999D01*
X139106408Y-118468832D01*
X139491900Y-118469168D01*
X139848177Y-118321957D01*
X140120999Y-118049611D01*
X140268832Y-117693592D01*
X140269168Y-117308100D01*
X140121957Y-116951823D01*
X139849611Y-116679001D01*
X139493592Y-116531168D01*
X139108100Y-116530832D01*
X138751823Y-116678043D01*
X138479001Y-116950389D01*
X138331168Y-117306408D01*
X138330832Y-117691900D01*
X137768833Y-117691900D01*
X137769168Y-117308100D01*
X137621957Y-116951823D01*
X137349611Y-116679001D01*
X136993592Y-116531168D01*
X136608100Y-116530832D01*
X136251823Y-116678043D01*
X135979001Y-116950389D01*
X135927000Y-117075620D01*
X135927000Y-108757533D01*
X138697924Y-108757533D01*
X138765072Y-108920046D01*
X138889300Y-109044491D01*
X139051695Y-109111923D01*
X139227533Y-109112076D01*
X139390046Y-109044928D01*
X139514491Y-108920700D01*
X139581923Y-108758305D01*
X139581923Y-108757533D01*
X146597924Y-108757533D01*
X146665072Y-108920046D01*
X146789300Y-109044491D01*
X146951695Y-109111923D01*
X147127533Y-109112076D01*
X147290046Y-109044928D01*
X147414491Y-108920700D01*
X147481923Y-108758305D01*
X147482076Y-108582467D01*
X147414928Y-108419954D01*
X147290700Y-108295509D01*
X147128305Y-108228077D01*
X146952467Y-108227924D01*
X146789954Y-108295072D01*
X146665509Y-108419300D01*
X146598077Y-108581695D01*
X146597924Y-108757533D01*
X139581923Y-108757533D01*
X139582076Y-108582467D01*
X139514928Y-108419954D01*
X139390700Y-108295509D01*
X139228305Y-108228077D01*
X139052467Y-108227924D01*
X138889954Y-108295072D01*
X138765509Y-108419300D01*
X138698077Y-108581695D01*
X138697924Y-108757533D01*
X135927000Y-108757533D01*
X135927000Y-96857533D01*
X139967924Y-96857533D01*
X140035072Y-97020046D01*
X140159300Y-97144491D01*
X140321695Y-97211923D01*
X140497533Y-97212076D01*
X140660046Y-97144928D01*
X140784491Y-97020700D01*
X140851923Y-96858305D01*
X140851923Y-96857533D01*
X147867924Y-96857533D01*
X147935072Y-97020046D01*
X148059300Y-97144491D01*
X148221695Y-97211923D01*
X148397533Y-97212076D01*
X148560046Y-97144928D01*
X148684491Y-97020700D01*
X148751923Y-96858305D01*
X148752076Y-96682467D01*
X148684928Y-96519954D01*
X148560700Y-96395509D01*
X148398305Y-96328077D01*
X148222467Y-96327924D01*
X148059954Y-96395072D01*
X147935509Y-96519300D01*
X147868077Y-96681695D01*
X147867924Y-96857533D01*
X140851923Y-96857533D01*
X140852076Y-96682467D01*
X140784928Y-96519954D01*
X140660700Y-96395509D01*
X140498305Y-96328077D01*
X140322467Y-96327924D01*
X140159954Y-96395072D01*
X140035509Y-96519300D01*
X139968077Y-96681695D01*
X139967924Y-96857533D01*
X135927000Y-96857533D01*
X135927000Y-78852606D01*
X142352606Y-72427000D01*
X145147394Y-72427000D01*
X151573000Y-78852606D01*
X151573000Y-78852606D01*
G37*
X151573000Y-78852606D02*
X151573000Y-107500000D01*
X151582667Y-107548601D01*
X151610197Y-107589803D01*
X156673000Y-112652606D01*
X156673000Y-123268000D01*
X139902228Y-123268000D01*
X140120999Y-123049611D01*
X140268832Y-122693592D01*
X140269168Y-122308100D01*
X140121957Y-121951823D01*
X139849611Y-121679001D01*
X139493592Y-121531168D01*
X139108100Y-121530832D01*
X138751823Y-121678043D01*
X138479001Y-121950389D01*
X138331168Y-122306408D01*
X138330832Y-122691900D01*
X138478043Y-123048177D01*
X138697482Y-123268000D01*
X137402228Y-123268000D01*
X137620999Y-123049611D01*
X137768832Y-122693592D01*
X137769168Y-122308100D01*
X137621957Y-121951823D01*
X137349611Y-121679001D01*
X136993592Y-121531168D01*
X136608100Y-121530832D01*
X136251823Y-121678043D01*
X135979001Y-121950389D01*
X135927000Y-122075620D01*
X135927000Y-120424644D01*
X135978043Y-120548177D01*
X136250389Y-120820999D01*
X136606408Y-120968832D01*
X136991900Y-120969168D01*
X137348177Y-120821957D01*
X137620999Y-120549611D01*
X137768832Y-120193592D01*
X137768833Y-120191900D01*
X138330832Y-120191900D01*
X138478043Y-120548177D01*
X138750389Y-120820999D01*
X139106408Y-120968832D01*
X139491900Y-120969168D01*
X139848177Y-120821957D01*
X139986375Y-120684000D01*
X147172945Y-120684000D01*
X147172945Y-122716000D01*
X147189011Y-122796767D01*
X147234762Y-122865238D01*
X147303233Y-122910989D01*
X147384000Y-122927055D01*
X149416000Y-122927055D01*
X149496767Y-122910989D01*
X149565238Y-122865238D01*
X149610989Y-122796767D01*
X149627055Y-122716000D01*
X149627055Y-120700510D01*
X152389455Y-120700510D01*
X152389455Y-122699490D01*
X152405521Y-122780257D01*
X152451272Y-122848728D01*
X152519743Y-122894479D01*
X152600510Y-122910545D01*
X154599490Y-122910545D01*
X154680257Y-122894479D01*
X154748728Y-122848728D01*
X154794479Y-122780257D01*
X154810545Y-122699490D01*
X154810545Y-120700510D01*
X154794479Y-120619743D01*
X154748728Y-120551272D01*
X154680257Y-120505521D01*
X154599490Y-120489455D01*
X152600510Y-120489455D01*
X152519743Y-120505521D01*
X152451272Y-120551272D01*
X152405521Y-120619743D01*
X152389455Y-120700510D01*
X149627055Y-120700510D01*
X149627055Y-120684000D01*
X149610989Y-120603233D01*
X149565238Y-120534762D01*
X149496767Y-120489011D01*
X149416000Y-120472945D01*
X147384000Y-120472945D01*
X147303233Y-120489011D01*
X147234762Y-120534762D01*
X147189011Y-120603233D01*
X147172945Y-120684000D01*
X139986375Y-120684000D01*
X140120999Y-120549611D01*
X140268832Y-120193592D01*
X140269168Y-119808100D01*
X140121957Y-119451823D01*
X139849611Y-119179001D01*
X139493592Y-119031168D01*
X139108100Y-119030832D01*
X138751823Y-119178043D01*
X138479001Y-119450389D01*
X138331168Y-119806408D01*
X138330832Y-120191900D01*
X137768833Y-120191900D01*
X137769168Y-119808100D01*
X137621957Y-119451823D01*
X137349611Y-119179001D01*
X136993592Y-119031168D01*
X136608100Y-119030832D01*
X136251823Y-119178043D01*
X135979001Y-119450389D01*
X135927000Y-119575620D01*
X135927000Y-117924644D01*
X135978043Y-118048177D01*
X136250389Y-118320999D01*
X136606408Y-118468832D01*
X136991900Y-118469168D01*
X137348177Y-118321957D01*
X137620999Y-118049611D01*
X137768832Y-117693592D01*
X137768833Y-117691900D01*
X138330832Y-117691900D01*
X138478043Y-118048177D01*
X138750389Y-118320999D01*
X139106408Y-118468832D01*
X139491900Y-118469168D01*
X139848177Y-118321957D01*
X140120999Y-118049611D01*
X140268832Y-117693592D01*
X140269168Y-117308100D01*
X140121957Y-116951823D01*
X139849611Y-116679001D01*
X139493592Y-116531168D01*
X139108100Y-116530832D01*
X138751823Y-116678043D01*
X138479001Y-116950389D01*
X138331168Y-117306408D01*
X138330832Y-117691900D01*
X137768833Y-117691900D01*
X137769168Y-117308100D01*
X137621957Y-116951823D01*
X137349611Y-116679001D01*
X136993592Y-116531168D01*
X136608100Y-116530832D01*
X136251823Y-116678043D01*
X135979001Y-116950389D01*
X135927000Y-117075620D01*
X135927000Y-108757533D01*
X138697924Y-108757533D01*
X138765072Y-108920046D01*
X138889300Y-109044491D01*
X139051695Y-109111923D01*
X139227533Y-109112076D01*
X139390046Y-109044928D01*
X139514491Y-108920700D01*
X139581923Y-108758305D01*
X139581923Y-108757533D01*
X146597924Y-108757533D01*
X146665072Y-108920046D01*
X146789300Y-109044491D01*
X146951695Y-109111923D01*
X147127533Y-109112076D01*
X147290046Y-109044928D01*
X147414491Y-108920700D01*
X147481923Y-108758305D01*
X147482076Y-108582467D01*
X147414928Y-108419954D01*
X147290700Y-108295509D01*
X147128305Y-108228077D01*
X146952467Y-108227924D01*
X146789954Y-108295072D01*
X146665509Y-108419300D01*
X146598077Y-108581695D01*
X146597924Y-108757533D01*
X139581923Y-108757533D01*
X139582076Y-108582467D01*
X139514928Y-108419954D01*
X139390700Y-108295509D01*
X139228305Y-108228077D01*
X139052467Y-108227924D01*
X138889954Y-108295072D01*
X138765509Y-108419300D01*
X138698077Y-108581695D01*
X138697924Y-108757533D01*
X135927000Y-108757533D01*
X135927000Y-96857533D01*
X139967924Y-96857533D01*
X140035072Y-97020046D01*
X140159300Y-97144491D01*
X140321695Y-97211923D01*
X140497533Y-97212076D01*
X140660046Y-97144928D01*
X140784491Y-97020700D01*
X140851923Y-96858305D01*
X140851923Y-96857533D01*
X147867924Y-96857533D01*
X147935072Y-97020046D01*
X148059300Y-97144491D01*
X148221695Y-97211923D01*
X148397533Y-97212076D01*
X148560046Y-97144928D01*
X148684491Y-97020700D01*
X148751923Y-96858305D01*
X148752076Y-96682467D01*
X148684928Y-96519954D01*
X148560700Y-96395509D01*
X148398305Y-96328077D01*
X148222467Y-96327924D01*
X148059954Y-96395072D01*
X147935509Y-96519300D01*
X147868077Y-96681695D01*
X147867924Y-96857533D01*
X140851923Y-96857533D01*
X140852076Y-96682467D01*
X140784928Y-96519954D01*
X140660700Y-96395509D01*
X140498305Y-96328077D01*
X140322467Y-96327924D01*
X140159954Y-96395072D01*
X140035509Y-96519300D01*
X139968077Y-96681695D01*
X139967924Y-96857533D01*
X135927000Y-96857533D01*
X135927000Y-78852606D01*
X142352606Y-72427000D01*
X145147394Y-72427000D01*
X151573000Y-78852606D01*
M02*
