G04 #@! TF.FileFunction,Legend,Top*
%FSLAX46Y46*%
G04 Gerber Fmt 4.6, Leading zero omitted, Abs format (unit mm)*
G04 Created by KiCad (PCBNEW (2016-03-20 BZR 6634, Git a4ba01f)-product) date 3/30/2016 9:29:25 AM*
%MOMM*%
G01*
G04 APERTURE LIST*
%ADD10C,0.100000*%
%ADD11C,0.300000*%
%ADD12C,0.150000*%
G04 APERTURE END LIST*
D10*
D11*
X144771429Y-119864285D02*
X144771429Y-118435714D01*
X145200000Y-119578571D02*
X145200000Y-118721428D01*
X144128571Y-119150000D02*
X144771429Y-119150000D01*
X145628571Y-119007142D02*
X145628571Y-119292857D01*
X145728571Y-121385714D02*
X145014286Y-121885714D01*
X145728571Y-122242857D02*
X144228571Y-122242857D01*
X144228571Y-121671429D01*
X144300000Y-121528571D01*
X144371429Y-121457143D01*
X144514286Y-121385714D01*
X144728571Y-121385714D01*
X144871429Y-121457143D01*
X144942857Y-121528571D01*
X145014286Y-121671429D01*
X145014286Y-122242857D01*
D12*
X156200960Y-117630920D02*
X156200960Y-123229080D01*
X156698800Y-123030960D02*
X156200960Y-123030960D01*
X156200960Y-117829040D02*
X156698800Y-117829040D01*
X156698800Y-120430000D02*
X156200960Y-120430000D01*
X150899980Y-123229080D02*
X150899980Y-117630920D01*
X156698800Y-123229080D02*
X156698800Y-117630920D01*
X156698800Y-117630920D02*
X150501200Y-117630920D01*
X150501200Y-117630920D02*
X150501200Y-123229080D01*
X150501200Y-123229080D02*
X156698800Y-123229080D01*
X149950000Y-123250000D02*
X149950000Y-121700000D01*
X149670000Y-117890000D02*
X149670000Y-120430000D01*
X149670000Y-120430000D02*
X147130000Y-120430000D01*
X146850000Y-121700000D02*
X146850000Y-123250000D01*
X146850000Y-123250000D02*
X149950000Y-123250000D01*
X147130000Y-120430000D02*
X147130000Y-117890000D01*
X147130000Y-117890000D02*
X149670000Y-117890000D01*
X145025000Y-70850000D02*
X142425000Y-70850000D01*
X145025000Y-86750000D02*
X142425000Y-86750000D01*
X138885000Y-109250000D02*
X140665000Y-109250000D01*
X140665000Y-96150000D02*
X138885000Y-96150000D01*
X146785000Y-109250000D02*
X148565000Y-109250000D01*
X148565000Y-96150000D02*
X146785000Y-96150000D01*
X154685000Y-109250000D02*
X156465000Y-109250000D01*
X156465000Y-96150000D02*
X154685000Y-96150000D01*
M02*
