G04 #@! TF.FileFunction,Copper,L1,Top,Signal*
%FSLAX46Y46*%
G04 Gerber Fmt 4.6, Leading zero omitted, Abs format (unit mm)*
G04 Created by KiCad (PCBNEW (2016-03-20 BZR 6634, Git a4ba01f)-product) date 3/28/2016 11:14:44 AM*
%MOMM*%
G01*
G04 APERTURE LIST*
%ADD10C,0.100000*%
%ADD11R,0.475000X0.220000*%
%ADD12O,1.998980X1.998980*%
%ADD13R,1.998980X1.998980*%
%ADD14R,1.020000X0.380000*%
%ADD15C,0.625000*%
%ADD16C,0.130000*%
G04 APERTURE END LIST*
D10*
D11*
X144812500Y-85000000D03*
X142625000Y-85000000D03*
X144812500Y-84600000D03*
X142625000Y-84600000D03*
X144812500Y-84200000D03*
X142625000Y-84200000D03*
X144812500Y-83800000D03*
X142625000Y-83800000D03*
X144812500Y-83400000D03*
X142625000Y-83400000D03*
X144812500Y-83000000D03*
X142625000Y-83000000D03*
X144812500Y-82600000D03*
X142625000Y-82600000D03*
X144812500Y-82200000D03*
X142625000Y-82200000D03*
X144812500Y-81800000D03*
X142625000Y-81800000D03*
X144812500Y-81400000D03*
X142625000Y-81400000D03*
X144812500Y-81000000D03*
X142625000Y-81000000D03*
X144812500Y-80600000D03*
X142625000Y-80600000D03*
X144812500Y-80200000D03*
X142625000Y-80200000D03*
X144812500Y-79800000D03*
X142625000Y-79800000D03*
X144812500Y-79400000D03*
X142625000Y-79400000D03*
X144812500Y-79000000D03*
X142625000Y-79000000D03*
X144812500Y-78600000D03*
X142625000Y-78600000D03*
X144812500Y-78200000D03*
X142625000Y-78200000D03*
X144812500Y-77800000D03*
X142625000Y-77800000D03*
X144812500Y-77400000D03*
X142625000Y-77400000D03*
X144812500Y-77000000D03*
X142625000Y-77000000D03*
X144812500Y-76600000D03*
X142625000Y-76600000D03*
X144812500Y-76200000D03*
X142625000Y-76200000D03*
X144812500Y-75800000D03*
X142625000Y-75800000D03*
X144812500Y-75400000D03*
X142625000Y-75400000D03*
X144812500Y-75000000D03*
X142625000Y-75000000D03*
X144812500Y-74600000D03*
X142625000Y-74600000D03*
X144812500Y-74200000D03*
X142625000Y-74200000D03*
X144812500Y-73800000D03*
X142625000Y-73800000D03*
X144812500Y-73400000D03*
X142625000Y-73400000D03*
X144812500Y-73000000D03*
X142625000Y-73000000D03*
X144812500Y-72600000D03*
X142625000Y-72600000D03*
D12*
X144940000Y-114100000D03*
D13*
X142400000Y-114100000D03*
D14*
X152860000Y-108160000D03*
X151590000Y-108160000D03*
X152860000Y-107520000D03*
X151590000Y-107520000D03*
X152860000Y-106880000D03*
X151590000Y-106880000D03*
X152860000Y-106240000D03*
X151590000Y-106240000D03*
X152860000Y-105600000D03*
X151590000Y-105600000D03*
X152860000Y-104960000D03*
X151590000Y-104960000D03*
X152860000Y-104320000D03*
X151590000Y-104320000D03*
X152860000Y-103680000D03*
X151590000Y-103680000D03*
X152860000Y-103040000D03*
X151590000Y-103040000D03*
X152860000Y-102400000D03*
X151590000Y-102400000D03*
X152860000Y-101760000D03*
X151590000Y-101760000D03*
X152860000Y-101120000D03*
X151590000Y-101120000D03*
X152860000Y-100480000D03*
X151590000Y-100480000D03*
X152860000Y-99840000D03*
X151590000Y-99840000D03*
X152860000Y-99200000D03*
X151590000Y-99200000D03*
X152860000Y-98560000D03*
X151590000Y-98560000D03*
X152860000Y-97920000D03*
X151590000Y-97920000D03*
X152860000Y-97280000D03*
X151590000Y-97280000D03*
X135760000Y-108160000D03*
X134490000Y-108160000D03*
X135760000Y-107520000D03*
X134490000Y-107520000D03*
X135760000Y-106880000D03*
X134490000Y-106880000D03*
X135760000Y-106240000D03*
X134490000Y-106240000D03*
X135760000Y-105600000D03*
X134490000Y-105600000D03*
X135760000Y-104960000D03*
X134490000Y-104960000D03*
X135760000Y-104320000D03*
X134490000Y-104320000D03*
X135760000Y-103680000D03*
X134490000Y-103680000D03*
X135760000Y-103040000D03*
X134490000Y-103040000D03*
X135760000Y-102400000D03*
X134490000Y-102400000D03*
X135760000Y-101760000D03*
X134490000Y-101760000D03*
X135760000Y-101120000D03*
X134490000Y-101120000D03*
X135760000Y-100480000D03*
X134490000Y-100480000D03*
X135760000Y-99840000D03*
X134490000Y-99840000D03*
X135760000Y-99200000D03*
X134490000Y-99200000D03*
X135760000Y-98560000D03*
X134490000Y-98560000D03*
X135760000Y-97920000D03*
X134490000Y-97920000D03*
X135760000Y-97280000D03*
X134490000Y-97280000D03*
D15*
X134475000Y-96575000D03*
X135750000Y-108875000D03*
X152875000Y-108850000D03*
X135750000Y-96575000D03*
X134475000Y-108875000D03*
X151575000Y-108850000D03*
D16*
X145603700Y-72600000D02*
X144812500Y-72600000D01*
X157968300Y-84964600D02*
X145603700Y-72600000D01*
X157968300Y-103147000D02*
X157968300Y-84964600D01*
X153595300Y-107520000D02*
X157968300Y-103147000D01*
X152860000Y-107520000D02*
X153595300Y-107520000D01*
X144812500Y-101477800D02*
X144812500Y-85000000D01*
X150854700Y-107520000D02*
X144812500Y-101477800D01*
X151590000Y-107520000D02*
X150854700Y-107520000D01*
X152860000Y-106880000D02*
X153595300Y-106880000D01*
X145563700Y-73000000D02*
X144812500Y-73000000D01*
X157677100Y-85113400D02*
X145563700Y-73000000D01*
X157677100Y-102798200D02*
X157677100Y-85113400D01*
X153595300Y-106880000D02*
X157677100Y-102798200D01*
X145078600Y-84600000D02*
X144812500Y-84600000D01*
X145275300Y-84796700D02*
X145078600Y-84600000D01*
X145275300Y-101300600D02*
X145275300Y-84796700D01*
X150854700Y-106880000D02*
X145275300Y-101300600D01*
X151590000Y-106880000D02*
X150854700Y-106880000D01*
X152860000Y-106240000D02*
X153595300Y-106240000D01*
X145540400Y-73400000D02*
X144812500Y-73400000D01*
X157386800Y-85246400D02*
X145540400Y-73400000D01*
X157386800Y-102448500D02*
X157386800Y-85246400D01*
X153595300Y-106240000D02*
X157386800Y-102448500D01*
X151590000Y-106240000D02*
X150854700Y-106240000D01*
X145089100Y-84200000D02*
X144812500Y-84200000D01*
X145565600Y-84676500D02*
X145089100Y-84200000D01*
X145565600Y-100950900D02*
X145565600Y-84676500D01*
X150854700Y-106240000D02*
X145565600Y-100950900D01*
X152860000Y-105600000D02*
X153595300Y-105600000D01*
X144812500Y-73800000D02*
X145275300Y-73800000D01*
X145523900Y-73800000D02*
X145275300Y-73800000D01*
X157096500Y-85372600D02*
X145523900Y-73800000D01*
X157096500Y-102098800D02*
X157096500Y-85372600D01*
X153595300Y-105600000D02*
X157096500Y-102098800D01*
X151590000Y-105600000D02*
X150854700Y-105600000D01*
X145099600Y-83800000D02*
X144812500Y-83800000D01*
X145855900Y-84556300D02*
X145099600Y-83800000D01*
X145855900Y-100601200D02*
X145855900Y-84556300D01*
X150854700Y-105600000D02*
X145855900Y-100601200D01*
X152860000Y-104960000D02*
X153595300Y-104960000D01*
X144812500Y-74200000D02*
X145275300Y-74200000D01*
X145506200Y-74200000D02*
X145275300Y-74200000D01*
X156806200Y-85500000D02*
X145506200Y-74200000D01*
X156806200Y-101749100D02*
X156806200Y-85500000D01*
X153595300Y-104960000D02*
X156806200Y-101749100D01*
X151590000Y-104960000D02*
X150854700Y-104960000D01*
X145110100Y-83400000D02*
X144812500Y-83400000D01*
X146146200Y-84436100D02*
X145110100Y-83400000D01*
X146146200Y-100251500D02*
X146146200Y-84436100D01*
X150854700Y-104960000D02*
X146146200Y-100251500D01*
X152860000Y-104320000D02*
X153595300Y-104320000D01*
X145470100Y-74600000D02*
X144812500Y-74600000D01*
X156515900Y-85645800D02*
X145470100Y-74600000D01*
X156515900Y-101399400D02*
X156515900Y-85645800D01*
X153595300Y-104320000D02*
X156515900Y-101399400D01*
X151590000Y-104320000D02*
X150854700Y-104320000D01*
X145120600Y-83000000D02*
X144812500Y-83000000D01*
X146436500Y-84315900D02*
X145120600Y-83000000D01*
X146436500Y-99901800D02*
X146436500Y-84315900D01*
X150854700Y-104320000D02*
X146436500Y-99901800D01*
X152860000Y-103680000D02*
X153595300Y-103680000D01*
X145449100Y-75000000D02*
X144812500Y-75000000D01*
X156220100Y-85771000D02*
X145449100Y-75000000D01*
X156220100Y-101055200D02*
X156220100Y-85771000D01*
X153595300Y-103680000D02*
X156220100Y-101055200D01*
X151590000Y-103680000D02*
X150854700Y-103680000D01*
X145131100Y-82600000D02*
X144812500Y-82600000D01*
X146726800Y-84195700D02*
X145131100Y-82600000D01*
X146726800Y-99552100D02*
X146726800Y-84195700D01*
X150854700Y-103680000D02*
X146726800Y-99552100D01*
X152860000Y-103040000D02*
X153595300Y-103040000D01*
X145438600Y-75400000D02*
X144812500Y-75400000D01*
X155929800Y-85891200D02*
X145438600Y-75400000D01*
X155929800Y-100705500D02*
X155929800Y-85891200D01*
X153595300Y-103040000D02*
X155929800Y-100705500D01*
X151590000Y-103040000D02*
X150854700Y-103040000D01*
X145141600Y-82200000D02*
X144812500Y-82200000D01*
X147017100Y-84075500D02*
X145141600Y-82200000D01*
X147017100Y-99202400D02*
X147017100Y-84075500D01*
X150854700Y-103040000D02*
X147017100Y-99202400D01*
X152860000Y-102400000D02*
X153595300Y-102400000D01*
X145428100Y-75800000D02*
X144812500Y-75800000D01*
X155639500Y-86011400D02*
X145428100Y-75800000D01*
X155639500Y-100355800D02*
X155639500Y-86011400D01*
X153595300Y-102400000D02*
X155639500Y-100355800D01*
X151590000Y-102400000D02*
X150854700Y-102400000D01*
X145152100Y-81800000D02*
X144812500Y-81800000D01*
X147307400Y-83955300D02*
X145152100Y-81800000D01*
X147307400Y-98852700D02*
X147307400Y-83955300D01*
X150854700Y-102400000D02*
X147307400Y-98852700D01*
X152860000Y-101760000D02*
X153595300Y-101760000D01*
X145417600Y-76200000D02*
X144812500Y-76200000D01*
X155349200Y-86131600D02*
X145417600Y-76200000D01*
X155349200Y-100006100D02*
X155349200Y-86131600D01*
X153595300Y-101760000D02*
X155349200Y-100006100D01*
X151590000Y-101760000D02*
X150854700Y-101760000D01*
X145162600Y-81400000D02*
X144812500Y-81400000D01*
X147597700Y-83835100D02*
X145162600Y-81400000D01*
X147597700Y-98503000D02*
X147597700Y-83835100D01*
X150854700Y-101760000D02*
X147597700Y-98503000D01*
X152860000Y-101120000D02*
X153595300Y-101120000D01*
X145407100Y-76600000D02*
X144812500Y-76600000D01*
X155058900Y-86251800D02*
X145407100Y-76600000D01*
X155058900Y-99656400D02*
X155058900Y-86251800D01*
X153595300Y-101120000D02*
X155058900Y-99656400D01*
X145173100Y-81000000D02*
X144812500Y-81000000D01*
X148033200Y-83860100D02*
X145173100Y-81000000D01*
X148033200Y-98298500D02*
X148033200Y-83860100D01*
X150854700Y-101120000D02*
X148033200Y-98298500D01*
X151590000Y-101120000D02*
X150854700Y-101120000D01*
X152860000Y-100480000D02*
X153595300Y-100480000D01*
X145396600Y-77000000D02*
X144812500Y-77000000D01*
X154768600Y-86372000D02*
X145396600Y-77000000D01*
X154768600Y-99306700D02*
X154768600Y-86372000D01*
X153595300Y-100480000D02*
X154768600Y-99306700D01*
X151590000Y-100480000D02*
X150854700Y-100480000D01*
X148429400Y-98054700D02*
X150854700Y-100480000D01*
X148429400Y-83845800D02*
X148429400Y-98054700D01*
X145183600Y-80600000D02*
X148429400Y-83845800D01*
X144812500Y-80600000D02*
X145183600Y-80600000D01*
X152860000Y-99840000D02*
X153595300Y-99840000D01*
X145386100Y-77400000D02*
X144812500Y-77400000D01*
X154478300Y-86492200D02*
X145386100Y-77400000D01*
X154478300Y-98957000D02*
X154478300Y-86492200D01*
X153595300Y-99840000D02*
X154478300Y-98957000D01*
X151590000Y-99840000D02*
X150854700Y-99840000D01*
X148904100Y-97889400D02*
X150854700Y-99840000D01*
X148904100Y-83910000D02*
X148904100Y-97889400D01*
X145194100Y-80200000D02*
X148904100Y-83910000D01*
X144812500Y-80200000D02*
X145194100Y-80200000D01*
X145375400Y-77800000D02*
X144812500Y-77800000D01*
X154178800Y-86603400D02*
X145375400Y-77800000D01*
X154178800Y-98616500D02*
X154178800Y-86603400D01*
X153595300Y-99200000D02*
X154178800Y-98616500D01*
X152860000Y-99200000D02*
X153595300Y-99200000D01*
X151590000Y-99200000D02*
X150854700Y-99200000D01*
X149339500Y-97684800D02*
X150854700Y-99200000D01*
X149339500Y-83934900D02*
X149339500Y-97684800D01*
X145204600Y-79800000D02*
X149339500Y-83934900D01*
X144812500Y-79800000D02*
X145204600Y-79800000D01*
X152860000Y-98560000D02*
X153595300Y-98560000D01*
X153888400Y-98266900D02*
X153595300Y-98560000D01*
X153888400Y-86768600D02*
X153888400Y-98266900D01*
X145319800Y-78200000D02*
X153888400Y-86768600D01*
X144812500Y-78200000D02*
X145319800Y-78200000D01*
X151590000Y-98560000D02*
X150854700Y-98560000D01*
X149629800Y-97335100D02*
X150854700Y-98560000D01*
X149629800Y-83814700D02*
X149629800Y-97335100D01*
X145215100Y-79400000D02*
X149629800Y-83814700D01*
X144812500Y-79400000D02*
X145215100Y-79400000D01*
X152860000Y-97920000D02*
X153595300Y-97920000D01*
X153595300Y-86895000D02*
X153595300Y-97920000D01*
X145300300Y-78600000D02*
X153595300Y-86895000D01*
X144812500Y-78600000D02*
X145300300Y-78600000D01*
X151590000Y-97920000D02*
X150854700Y-97920000D01*
X144812500Y-79000000D02*
X145275300Y-79000000D01*
X149920100Y-96985400D02*
X150854700Y-97920000D01*
X149920100Y-83644800D02*
X149920100Y-96985400D01*
X145275300Y-79000000D02*
X149920100Y-83644800D01*
X135760000Y-107520000D02*
X136495300Y-107520000D01*
X142625000Y-101390300D02*
X136495300Y-107520000D01*
X142625000Y-85000000D02*
X142625000Y-101390300D01*
X142625000Y-72600000D02*
X142162200Y-72600000D01*
X128720900Y-102486200D02*
X133754700Y-107520000D01*
X128720900Y-85393000D02*
X128720900Y-102486200D01*
X141513900Y-72600000D02*
X128720900Y-85393000D01*
X142162200Y-72600000D02*
X141513900Y-72600000D01*
X134490000Y-107520000D02*
X133754700Y-107520000D01*
X135760000Y-106880000D02*
X136495300Y-106880000D01*
X142625000Y-84600000D02*
X142162200Y-84600000D01*
X142162200Y-101213100D02*
X142162200Y-84600000D01*
X136495300Y-106880000D02*
X142162200Y-101213100D01*
X141556800Y-73000000D02*
X142625000Y-73000000D01*
X129055300Y-85501500D02*
X141556800Y-73000000D01*
X129055300Y-102180600D02*
X129055300Y-85501500D01*
X133754700Y-106880000D02*
X129055300Y-102180600D01*
X134490000Y-106880000D02*
X133754700Y-106880000D01*
X135760000Y-106240000D02*
X136495300Y-106240000D01*
X142125400Y-84200000D02*
X142625000Y-84200000D01*
X141871800Y-84453600D02*
X142125400Y-84200000D01*
X141871800Y-100863500D02*
X141871800Y-84453600D01*
X136495300Y-106240000D02*
X141871800Y-100863500D01*
X134490000Y-106240000D02*
X133754700Y-106240000D01*
X141599700Y-73400000D02*
X142625000Y-73400000D01*
X129345700Y-85654000D02*
X141599700Y-73400000D01*
X129345700Y-101831000D02*
X129345700Y-85654000D01*
X133754700Y-106240000D02*
X129345700Y-101831000D01*
X135760000Y-105600000D02*
X136495300Y-105600000D01*
X142051000Y-83800000D02*
X142625000Y-83800000D01*
X141574700Y-84276300D02*
X142051000Y-83800000D01*
X141574700Y-100520600D02*
X141574700Y-84276300D01*
X136495300Y-105600000D02*
X141574700Y-100520600D01*
X134490000Y-105600000D02*
X133754700Y-105600000D01*
X141646400Y-73800000D02*
X142625000Y-73800000D01*
X129636100Y-85810300D02*
X141646400Y-73800000D01*
X129636100Y-101481400D02*
X129636100Y-85810300D01*
X133754700Y-105600000D02*
X129636100Y-101481400D01*
X135760000Y-104960000D02*
X136495300Y-104960000D01*
X142040500Y-83400000D02*
X142625000Y-83400000D01*
X141284400Y-84156100D02*
X142040500Y-83400000D01*
X141284400Y-100170900D02*
X141284400Y-84156100D01*
X136495300Y-104960000D02*
X141284400Y-100170900D01*
X134490000Y-104960000D02*
X133754700Y-104960000D01*
X142625000Y-74200000D02*
X142162200Y-74200000D01*
X141679700Y-74200000D02*
X142162200Y-74200000D01*
X129926500Y-85953200D02*
X141679700Y-74200000D01*
X129926500Y-101131800D02*
X129926500Y-85953200D01*
X133754700Y-104960000D02*
X129926500Y-101131800D01*
X135760000Y-104320000D02*
X136495300Y-104320000D01*
X142030000Y-83000000D02*
X142625000Y-83000000D01*
X140867100Y-84162900D02*
X142030000Y-83000000D01*
X140867100Y-99948200D02*
X140867100Y-84162900D01*
X136495300Y-104320000D02*
X140867100Y-99948200D01*
X134490000Y-104320000D02*
X133754700Y-104320000D01*
X141698600Y-74600000D02*
X142625000Y-74600000D01*
X130224000Y-86074600D02*
X141698600Y-74600000D01*
X130224000Y-100789300D02*
X130224000Y-86074600D01*
X133754700Y-104320000D02*
X130224000Y-100789300D01*
X135760000Y-103680000D02*
X136495300Y-103680000D01*
X142019500Y-82600000D02*
X142625000Y-82600000D01*
X140576800Y-84042700D02*
X142019500Y-82600000D01*
X140576800Y-99598500D02*
X140576800Y-84042700D01*
X136495300Y-103680000D02*
X140576800Y-99598500D01*
X134490000Y-103680000D02*
X133754700Y-103680000D01*
X142625000Y-75000000D02*
X142162200Y-75000000D01*
X142162200Y-75000100D02*
X142162200Y-75000000D01*
X141717300Y-75000100D02*
X142162200Y-75000100D01*
X130514400Y-86203000D02*
X141717300Y-75000100D01*
X130514400Y-100439700D02*
X130514400Y-86203000D01*
X133754700Y-103680000D02*
X130514400Y-100439700D01*
X135760000Y-103040000D02*
X136495300Y-103040000D01*
X142009000Y-82200000D02*
X142625000Y-82200000D01*
X140286500Y-83922500D02*
X142009000Y-82200000D01*
X140286500Y-99248800D02*
X140286500Y-83922500D01*
X136495300Y-103040000D02*
X140286500Y-99248800D01*
X134490000Y-103040000D02*
X133754700Y-103040000D01*
X141727900Y-75400000D02*
X142625000Y-75400000D01*
X130804800Y-86323100D02*
X141727900Y-75400000D01*
X130804800Y-100090100D02*
X130804800Y-86323100D01*
X133754700Y-103040000D02*
X130804800Y-100090100D01*
X141998500Y-81800000D02*
X142625000Y-81800000D01*
X139996200Y-83802300D02*
X141998500Y-81800000D01*
X139996200Y-98899100D02*
X139996200Y-83802300D01*
X136495300Y-102400000D02*
X139996200Y-98899100D01*
X135760000Y-102400000D02*
X136495300Y-102400000D01*
X134490000Y-102400000D02*
X133754700Y-102400000D01*
X141738400Y-75800000D02*
X142625000Y-75800000D01*
X131095200Y-86443200D02*
X141738400Y-75800000D01*
X131095200Y-99740500D02*
X131095200Y-86443200D01*
X133754700Y-102400000D02*
X131095200Y-99740500D01*
X135760000Y-101760000D02*
X136495300Y-101760000D01*
X139705900Y-98549400D02*
X136495300Y-101760000D01*
X139705900Y-83682100D02*
X139705900Y-98549400D01*
X141988000Y-81400000D02*
X139705900Y-83682100D01*
X142625000Y-81400000D02*
X141988000Y-81400000D01*
X134490000Y-101760000D02*
X133754700Y-101760000D01*
X141748900Y-76200000D02*
X142625000Y-76200000D01*
X131385600Y-86563300D02*
X141748900Y-76200000D01*
X131385600Y-99390900D02*
X131385600Y-86563300D01*
X133754700Y-101760000D02*
X131385600Y-99390900D01*
X135760000Y-101120000D02*
X136495300Y-101120000D01*
X139415600Y-98199700D02*
X136495300Y-101120000D01*
X139415600Y-83561900D02*
X139415600Y-98199700D01*
X141977500Y-81000000D02*
X139415600Y-83561900D01*
X142625000Y-81000000D02*
X141977500Y-81000000D01*
X134490000Y-101120000D02*
X133754700Y-101120000D01*
X141759400Y-76600000D02*
X142625000Y-76600000D01*
X131676000Y-86683400D02*
X141759400Y-76600000D01*
X131676000Y-99041300D02*
X131676000Y-86683400D01*
X133754700Y-101120000D02*
X131676000Y-99041300D01*
X135760000Y-100480000D02*
X136495300Y-100480000D01*
X139125300Y-97850000D02*
X136495300Y-100480000D01*
X139125300Y-83441700D02*
X139125300Y-97850000D01*
X141967000Y-80600000D02*
X139125300Y-83441700D01*
X142625000Y-80600000D02*
X141967000Y-80600000D01*
X134490000Y-100480000D02*
X133754700Y-100480000D01*
X141769900Y-77000000D02*
X142625000Y-77000000D01*
X131966400Y-86803500D02*
X141769900Y-77000000D01*
X131966400Y-98691700D02*
X131966400Y-86803500D01*
X133754700Y-100480000D02*
X131966400Y-98691700D01*
X135760000Y-99840000D02*
X136495300Y-99840000D01*
X138835000Y-97500300D02*
X136495300Y-99840000D01*
X138835000Y-83321500D02*
X138835000Y-97500300D01*
X141956500Y-80200000D02*
X138835000Y-83321500D01*
X142625000Y-80200000D02*
X141956500Y-80200000D01*
X134490000Y-99840000D02*
X133754700Y-99840000D01*
X141780400Y-77400000D02*
X142625000Y-77400000D01*
X132256800Y-86923600D02*
X141780400Y-77400000D01*
X132256800Y-98342100D02*
X132256800Y-86923600D01*
X133754700Y-99840000D02*
X132256800Y-98342100D01*
X135760000Y-99200000D02*
X136495300Y-99200000D01*
X138544700Y-97150600D02*
X136495300Y-99200000D01*
X138544700Y-83201300D02*
X138544700Y-97150600D01*
X141946000Y-79800000D02*
X138544700Y-83201300D01*
X142625000Y-79800000D02*
X141946000Y-79800000D01*
X134490000Y-99200000D02*
X133754700Y-99200000D01*
X141833300Y-77800000D02*
X142625000Y-77800000D01*
X132605700Y-87027600D02*
X141833300Y-77800000D01*
X132605700Y-98051000D02*
X132605700Y-87027600D01*
X133754700Y-99200000D02*
X132605700Y-98051000D01*
X135760000Y-98560000D02*
X136495300Y-98560000D01*
X138254400Y-96800900D02*
X136495300Y-98560000D01*
X138254400Y-83081100D02*
X138254400Y-96800900D01*
X141935500Y-79400000D02*
X138254400Y-83081100D01*
X142625000Y-79400000D02*
X141935500Y-79400000D01*
X134490000Y-98560000D02*
X133754700Y-98560000D01*
X141886100Y-78200000D02*
X142625000Y-78200000D01*
X132896100Y-87190000D02*
X141886100Y-78200000D01*
X132896100Y-97701400D02*
X132896100Y-87190000D01*
X133754700Y-98560000D02*
X132896100Y-97701400D01*
X135760000Y-97920000D02*
X136495300Y-97920000D01*
X137964100Y-96451200D02*
X136495300Y-97920000D01*
X137964100Y-82960900D02*
X137964100Y-96451200D01*
X141925000Y-79000000D02*
X137964100Y-82960900D01*
X142625000Y-79000000D02*
X141925000Y-79000000D01*
X134490000Y-97920000D02*
X133754700Y-97920000D01*
X142625000Y-78600000D02*
X142162200Y-78600000D01*
X141899500Y-78600000D02*
X142162200Y-78600000D01*
X133194300Y-87305200D02*
X141899500Y-78600000D01*
X133194300Y-97359600D02*
X133194300Y-87305200D01*
X133754700Y-97920000D02*
X133194300Y-97359600D01*
X134490000Y-97280000D02*
X134490000Y-96590000D01*
X134490000Y-96590000D02*
X134475000Y-96575000D01*
X135760000Y-108160000D02*
X135760000Y-108865000D01*
X135760000Y-108865000D02*
X135750000Y-108875000D01*
X152860000Y-108160000D02*
X152860000Y-108835000D01*
X152860000Y-108835000D02*
X152875000Y-108850000D01*
X135760000Y-97280000D02*
X135760000Y-96585000D01*
X135760000Y-96585000D02*
X135750000Y-96575000D01*
X134490000Y-108160000D02*
X134490000Y-108860000D01*
X134490000Y-108860000D02*
X134475000Y-108875000D01*
X151590000Y-108160000D02*
X151590000Y-108835000D01*
X151590000Y-108835000D02*
X151575000Y-108850000D01*
M02*
