G04 #@! TF.FileFunction,Legend,Top*
%FSLAX46Y46*%
G04 Gerber Fmt 4.6, Leading zero omitted, Abs format (unit mm)*
G04 Created by KiCad (PCBNEW (2016-03-20 BZR 6634, Git a4ba01f)-product) date 3/28/2016 1:32:43 PM*
%MOMM*%
G01*
G04 APERTURE LIST*
%ADD10C,0.100000*%
%ADD11C,0.300000*%
%ADD12C,0.150000*%
G04 APERTURE END LIST*
D10*
D11*
X139221429Y-117414285D02*
X139221429Y-115985714D01*
X139650000Y-117128571D02*
X139650000Y-116271428D01*
X138578571Y-116700000D02*
X139221429Y-116700000D01*
X140078571Y-116557142D02*
X140078571Y-116842857D01*
X140078571Y-113535714D02*
X139364286Y-114035714D01*
X140078571Y-114392857D02*
X138578571Y-114392857D01*
X138578571Y-113821429D01*
X138650000Y-113678571D01*
X138721429Y-113607143D01*
X138864286Y-113535714D01*
X139078571Y-113535714D01*
X139221429Y-113607143D01*
X139292857Y-113678571D01*
X139364286Y-113821429D01*
X139364286Y-114392857D01*
D12*
X151000960Y-112730920D02*
X151000960Y-118329080D01*
X151498800Y-118130960D02*
X151000960Y-118130960D01*
X151000960Y-112929040D02*
X151498800Y-112929040D01*
X151498800Y-115530000D02*
X151000960Y-115530000D01*
X145699980Y-118329080D02*
X145699980Y-112730920D01*
X151498800Y-118329080D02*
X151498800Y-112730920D01*
X151498800Y-112730920D02*
X145301200Y-112730920D01*
X145301200Y-112730920D02*
X145301200Y-118329080D01*
X145301200Y-118329080D02*
X151498800Y-118329080D01*
X144350000Y-118250000D02*
X144350000Y-116700000D01*
X144070000Y-112890000D02*
X144070000Y-115430000D01*
X144070000Y-115430000D02*
X141530000Y-115430000D01*
X141250000Y-116700000D02*
X141250000Y-118250000D01*
X141250000Y-118250000D02*
X144350000Y-118250000D01*
X141530000Y-115430000D02*
X141530000Y-112890000D01*
X141530000Y-112890000D02*
X144070000Y-112890000D01*
M02*
