G04 #@! TF.FileFunction,Paste,Top*
%FSLAX46Y46*%
G04 Gerber Fmt 4.6, Leading zero omitted, Abs format (unit mm)*
G04 Created by KiCad (PCBNEW (2016-03-20 BZR 6634, Git a4ba01f)-product) date 3/30/2016 9:29:25 AM*
%MOMM*%
G01*
G04 APERTURE LIST*
%ADD10C,0.100000*%
%ADD11R,0.475000X0.220000*%
%ADD12R,0.650000X0.320000*%
%ADD13R,1.020000X0.380000*%
G04 APERTURE END LIST*
D10*
D11*
X142512500Y-72600000D03*
X144937500Y-72600000D03*
X142512500Y-73000000D03*
X144937500Y-73000000D03*
X142512500Y-73400000D03*
X144937500Y-73400000D03*
X142512500Y-73800000D03*
X144937500Y-73800000D03*
X142512500Y-74200000D03*
X144937500Y-74200000D03*
X142512500Y-74600000D03*
X144937500Y-74600000D03*
X142512500Y-75000000D03*
X144937500Y-75000000D03*
X142512500Y-75400000D03*
X144937500Y-75400000D03*
X142512500Y-75800000D03*
X144937500Y-75800000D03*
X142512500Y-76200000D03*
X144937500Y-76200000D03*
X142512500Y-76600000D03*
X144937500Y-76600000D03*
X142512500Y-77000000D03*
X144937500Y-77000000D03*
X142512500Y-77400000D03*
X144937500Y-77400000D03*
X142512500Y-77800000D03*
X144937500Y-77800000D03*
X142512500Y-78200000D03*
X144937500Y-78200000D03*
X142512500Y-78600000D03*
X144937500Y-78600000D03*
X142512500Y-79000000D03*
X144937500Y-79000000D03*
X142512500Y-79400000D03*
X144937500Y-79400000D03*
X142512500Y-79800000D03*
X144937500Y-79800000D03*
X142512500Y-80200000D03*
X144937500Y-80200000D03*
X142512500Y-80600000D03*
X144937500Y-80600000D03*
X142512500Y-81000000D03*
X144937500Y-81000000D03*
X142512500Y-81400000D03*
X144937500Y-81400000D03*
X142512500Y-81800000D03*
X144937500Y-81800000D03*
X142512500Y-82200000D03*
X144937500Y-82200000D03*
X142512500Y-82600000D03*
X144937500Y-82600000D03*
X142512500Y-83000000D03*
X144937500Y-83000000D03*
X142512500Y-83400000D03*
X144937500Y-83400000D03*
X142512500Y-83800000D03*
X144937500Y-83800000D03*
X142512500Y-84200000D03*
X144937500Y-84200000D03*
X142512500Y-84600000D03*
X144937500Y-84600000D03*
X142512500Y-85000000D03*
X144937500Y-85000000D03*
D12*
X142640000Y-71650000D03*
X144810000Y-71650000D03*
X144810000Y-85950000D03*
X142640000Y-85950000D03*
D13*
X140410000Y-108140000D03*
X139140000Y-108140000D03*
X140410000Y-107500000D03*
X139140000Y-107500000D03*
X140410000Y-106860000D03*
X139140000Y-106860000D03*
X140410000Y-106220000D03*
X139140000Y-106220000D03*
X140410000Y-105580000D03*
X139140000Y-105580000D03*
X140410000Y-104940000D03*
X139140000Y-104940000D03*
X140410000Y-104300000D03*
X139140000Y-104300000D03*
X140410000Y-103660000D03*
X139140000Y-103660000D03*
X140410000Y-103020000D03*
X139140000Y-103020000D03*
X140410000Y-102380000D03*
X139140000Y-102380000D03*
X140410000Y-101740000D03*
X139140000Y-101740000D03*
X140410000Y-101100000D03*
X139140000Y-101100000D03*
X140410000Y-100460000D03*
X139140000Y-100460000D03*
X140410000Y-99820000D03*
X139140000Y-99820000D03*
X140410000Y-99180000D03*
X139140000Y-99180000D03*
X140410000Y-98540000D03*
X139140000Y-98540000D03*
X140410000Y-97900000D03*
X139140000Y-97900000D03*
X140410000Y-97260000D03*
X139140000Y-97260000D03*
X148310000Y-108140000D03*
X147040000Y-108140000D03*
X148310000Y-107500000D03*
X147040000Y-107500000D03*
X148310000Y-106860000D03*
X147040000Y-106860000D03*
X148310000Y-106220000D03*
X147040000Y-106220000D03*
X148310000Y-105580000D03*
X147040000Y-105580000D03*
X148310000Y-104940000D03*
X147040000Y-104940000D03*
X148310000Y-104300000D03*
X147040000Y-104300000D03*
X148310000Y-103660000D03*
X147040000Y-103660000D03*
X148310000Y-103020000D03*
X147040000Y-103020000D03*
X148310000Y-102380000D03*
X147040000Y-102380000D03*
X148310000Y-101740000D03*
X147040000Y-101740000D03*
X148310000Y-101100000D03*
X147040000Y-101100000D03*
X148310000Y-100460000D03*
X147040000Y-100460000D03*
X148310000Y-99820000D03*
X147040000Y-99820000D03*
X148310000Y-99180000D03*
X147040000Y-99180000D03*
X148310000Y-98540000D03*
X147040000Y-98540000D03*
X148310000Y-97900000D03*
X147040000Y-97900000D03*
X148310000Y-97260000D03*
X147040000Y-97260000D03*
X156210000Y-108140000D03*
X154940000Y-108140000D03*
X156210000Y-107500000D03*
X154940000Y-107500000D03*
X156210000Y-106860000D03*
X154940000Y-106860000D03*
X156210000Y-106220000D03*
X154940000Y-106220000D03*
X156210000Y-105580000D03*
X154940000Y-105580000D03*
X156210000Y-104940000D03*
X154940000Y-104940000D03*
X156210000Y-104300000D03*
X154940000Y-104300000D03*
X156210000Y-103660000D03*
X154940000Y-103660000D03*
X156210000Y-103020000D03*
X154940000Y-103020000D03*
X156210000Y-102380000D03*
X154940000Y-102380000D03*
X156210000Y-101740000D03*
X154940000Y-101740000D03*
X156210000Y-101100000D03*
X154940000Y-101100000D03*
X156210000Y-100460000D03*
X154940000Y-100460000D03*
X156210000Y-99820000D03*
X154940000Y-99820000D03*
X156210000Y-99180000D03*
X154940000Y-99180000D03*
X156210000Y-98540000D03*
X154940000Y-98540000D03*
X156210000Y-97900000D03*
X154940000Y-97900000D03*
X156210000Y-97260000D03*
X154940000Y-97260000D03*
M02*
