G04 #@! TF.FileFunction,Legend,Top*
%FSLAX46Y46*%
G04 Gerber Fmt 4.6, Leading zero omitted, Abs format (unit mm)*
G04 Created by KiCad (PCBNEW (2016-03-20 BZR 6634, Git a4ba01f)-product) date 3/28/2016 11:14:44 AM*
%MOMM*%
G01*
G04 APERTURE LIST*
%ADD10C,0.100000*%
%ADD11C,0.150000*%
G04 APERTURE END LIST*
D10*
D11*
X146469080Y-116700960D02*
X140870920Y-116700960D01*
X141069040Y-117198800D02*
X141069040Y-116700960D01*
X146270960Y-116700960D02*
X146270960Y-117198800D01*
X143670000Y-117198800D02*
X143670000Y-116700960D01*
X140870920Y-111399980D02*
X146469080Y-111399980D01*
X140870920Y-117198800D02*
X146469080Y-117198800D01*
X146469080Y-117198800D02*
X146469080Y-111001200D01*
X146469080Y-111001200D02*
X140870920Y-111001200D01*
X140870920Y-111001200D02*
X140870920Y-117198800D01*
X148352381Y-79438095D02*
X147352381Y-79438095D01*
X147352381Y-79057142D01*
X147400000Y-78961904D01*
X147447619Y-78914285D01*
X147542857Y-78866666D01*
X147685714Y-78866666D01*
X147780952Y-78914285D01*
X147828571Y-78961904D01*
X147876190Y-79057142D01*
X147876190Y-79438095D01*
X148352381Y-77914285D02*
X148352381Y-78485714D01*
X148352381Y-78200000D02*
X147352381Y-78200000D01*
X147495238Y-78295238D01*
X147590476Y-78390476D01*
X147638095Y-78485714D01*
X142931905Y-110051501D02*
X142931905Y-109051501D01*
X143312858Y-109051501D01*
X143408096Y-109099120D01*
X143455715Y-109146739D01*
X143503334Y-109241977D01*
X143503334Y-109384834D01*
X143455715Y-109480072D01*
X143408096Y-109527691D01*
X143312858Y-109575310D01*
X142931905Y-109575310D01*
X143884286Y-109146739D02*
X143931905Y-109099120D01*
X144027143Y-109051501D01*
X144265239Y-109051501D01*
X144360477Y-109099120D01*
X144408096Y-109146739D01*
X144455715Y-109241977D01*
X144455715Y-109337215D01*
X144408096Y-109480072D01*
X143836667Y-110051501D01*
X144455715Y-110051501D01*
X155352381Y-103161905D02*
X156161905Y-103161905D01*
X156257143Y-103114286D01*
X156304762Y-103066667D01*
X156352381Y-102971429D01*
X156352381Y-102780952D01*
X156304762Y-102685714D01*
X156257143Y-102638095D01*
X156161905Y-102590476D01*
X155352381Y-102590476D01*
X156352381Y-101590476D02*
X156352381Y-102161905D01*
X156352381Y-101876191D02*
X155352381Y-101876191D01*
X155495238Y-101971429D01*
X155590476Y-102066667D01*
X155638095Y-102161905D01*
X138252381Y-103161905D02*
X139061905Y-103161905D01*
X139157143Y-103114286D01*
X139204762Y-103066667D01*
X139252381Y-102971429D01*
X139252381Y-102780952D01*
X139204762Y-102685714D01*
X139157143Y-102638095D01*
X139061905Y-102590476D01*
X138252381Y-102590476D01*
X138347619Y-102161905D02*
X138300000Y-102114286D01*
X138252381Y-102019048D01*
X138252381Y-101780952D01*
X138300000Y-101685714D01*
X138347619Y-101638095D01*
X138442857Y-101590476D01*
X138538095Y-101590476D01*
X138680952Y-101638095D01*
X139252381Y-102209524D01*
X139252381Y-101590476D01*
M02*
