G04 #@! TF.FileFunction,Soldermask,Top*
%FSLAX46Y46*%
G04 Gerber Fmt 4.6, Leading zero omitted, Abs format (unit mm)*
G04 Created by KiCad (PCBNEW (2016-03-20 BZR 6634, Git a4ba01f)-product) date 3/28/2016 2:10:45 PM*
%MOMM*%
G01*
G04 APERTURE LIST*
%ADD10C,0.100000*%
%ADD11R,0.875000X0.620000*%
%ADD12O,2.398980X2.398980*%
%ADD13R,2.398980X2.398980*%
%ADD14R,1.420000X0.780000*%
%ADD15R,2.432000X2.432000*%
%ADD16O,2.432000X2.432000*%
%ADD17C,1.924000*%
G04 APERTURE END LIST*
D10*
D11*
X144812500Y-85000000D03*
X142625000Y-85000000D03*
X144812500Y-84600000D03*
X142625000Y-84600000D03*
X144812500Y-84200000D03*
X142625000Y-84200000D03*
X144812500Y-83800000D03*
X142625000Y-83800000D03*
X144812500Y-83400000D03*
X142625000Y-83400000D03*
X144812500Y-83000000D03*
X142625000Y-83000000D03*
X144812500Y-82600000D03*
X142625000Y-82600000D03*
X144812500Y-82200000D03*
X142625000Y-82200000D03*
X144812500Y-81800000D03*
X142625000Y-81800000D03*
X144812500Y-81400000D03*
X142625000Y-81400000D03*
X144812500Y-81000000D03*
X142625000Y-81000000D03*
X144812500Y-80600000D03*
X142625000Y-80600000D03*
X144812500Y-80200000D03*
X142625000Y-80200000D03*
X144812500Y-79800000D03*
X142625000Y-79800000D03*
X144812500Y-79400000D03*
X142625000Y-79400000D03*
X144812500Y-79000000D03*
X142625000Y-79000000D03*
X144812500Y-78600000D03*
X142625000Y-78600000D03*
X144812500Y-78200000D03*
X142625000Y-78200000D03*
X144812500Y-77800000D03*
X142625000Y-77800000D03*
X144812500Y-77400000D03*
X142625000Y-77400000D03*
X144812500Y-77000000D03*
X142625000Y-77000000D03*
X144812500Y-76600000D03*
X142625000Y-76600000D03*
X144812500Y-76200000D03*
X142625000Y-76200000D03*
X144812500Y-75800000D03*
X142625000Y-75800000D03*
X144812500Y-75400000D03*
X142625000Y-75400000D03*
X144812500Y-75000000D03*
X142625000Y-75000000D03*
X144812500Y-74600000D03*
X142625000Y-74600000D03*
X144812500Y-74200000D03*
X142625000Y-74200000D03*
X144812500Y-73800000D03*
X142625000Y-73800000D03*
X144812500Y-73400000D03*
X142625000Y-73400000D03*
X144812500Y-73000000D03*
X142625000Y-73000000D03*
X144812500Y-72600000D03*
X142625000Y-72600000D03*
D12*
X153600000Y-119160000D03*
D13*
X153600000Y-121700000D03*
D14*
X148310000Y-108160000D03*
X147040000Y-108160000D03*
X148310000Y-107520000D03*
X147040000Y-107520000D03*
X148310000Y-106880000D03*
X147040000Y-106880000D03*
X148310000Y-106240000D03*
X147040000Y-106240000D03*
X148310000Y-105600000D03*
X147040000Y-105600000D03*
X148310000Y-104960000D03*
X147040000Y-104960000D03*
X148310000Y-104320000D03*
X147040000Y-104320000D03*
X148310000Y-103680000D03*
X147040000Y-103680000D03*
X148310000Y-103040000D03*
X147040000Y-103040000D03*
X148310000Y-102400000D03*
X147040000Y-102400000D03*
X148310000Y-101760000D03*
X147040000Y-101760000D03*
X148310000Y-101120000D03*
X147040000Y-101120000D03*
X148310000Y-100480000D03*
X147040000Y-100480000D03*
X148310000Y-99840000D03*
X147040000Y-99840000D03*
X148310000Y-99200000D03*
X147040000Y-99200000D03*
X148310000Y-98560000D03*
X147040000Y-98560000D03*
X148310000Y-97920000D03*
X147040000Y-97920000D03*
X148310000Y-97280000D03*
X147040000Y-97280000D03*
X140410000Y-108160000D03*
X139140000Y-108160000D03*
X140410000Y-107520000D03*
X139140000Y-107520000D03*
X140410000Y-106880000D03*
X139140000Y-106880000D03*
X140410000Y-106240000D03*
X139140000Y-106240000D03*
X140410000Y-105600000D03*
X139140000Y-105600000D03*
X140410000Y-104960000D03*
X139140000Y-104960000D03*
X140410000Y-104320000D03*
X139140000Y-104320000D03*
X140410000Y-103680000D03*
X139140000Y-103680000D03*
X140410000Y-103040000D03*
X139140000Y-103040000D03*
X140410000Y-102400000D03*
X139140000Y-102400000D03*
X140410000Y-101760000D03*
X139140000Y-101760000D03*
X140410000Y-101120000D03*
X139140000Y-101120000D03*
X140410000Y-100480000D03*
X139140000Y-100480000D03*
X140410000Y-99840000D03*
X139140000Y-99840000D03*
X140410000Y-99200000D03*
X139140000Y-99200000D03*
X140410000Y-98560000D03*
X139140000Y-98560000D03*
X140410000Y-97920000D03*
X139140000Y-97920000D03*
X140410000Y-97280000D03*
X139140000Y-97280000D03*
D15*
X148400000Y-121700000D03*
D16*
X148400000Y-119160000D03*
D17*
X136800000Y-122500000D03*
X136800000Y-120000000D03*
X139300000Y-117500000D03*
X136800000Y-117500000D03*
D14*
X156210000Y-108160000D03*
X154940000Y-108160000D03*
X156210000Y-107520000D03*
X154940000Y-107520000D03*
X156210000Y-106880000D03*
X154940000Y-106880000D03*
X156210000Y-106240000D03*
X154940000Y-106240000D03*
X156210000Y-105600000D03*
X154940000Y-105600000D03*
X156210000Y-104960000D03*
X154940000Y-104960000D03*
X156210000Y-104320000D03*
X154940000Y-104320000D03*
X156210000Y-103680000D03*
X154940000Y-103680000D03*
X156210000Y-103040000D03*
X154940000Y-103040000D03*
X156210000Y-102400000D03*
X154940000Y-102400000D03*
X156210000Y-101760000D03*
X154940000Y-101760000D03*
X156210000Y-101120000D03*
X154940000Y-101120000D03*
X156210000Y-100480000D03*
X154940000Y-100480000D03*
X156210000Y-99840000D03*
X154940000Y-99840000D03*
X156210000Y-99200000D03*
X154940000Y-99200000D03*
X156210000Y-98560000D03*
X154940000Y-98560000D03*
X156210000Y-97920000D03*
X154940000Y-97920000D03*
X156210000Y-97280000D03*
X154940000Y-97280000D03*
D17*
X139300000Y-122500000D03*
X139300000Y-120000000D03*
M02*
